<svg xmlns="http://www.w3.org/2000/svg" width="220" height="219" fill="none">
    <path stroke="#017169" stroke-width=".75" d="M110.37 120.35h-9.186s-7.542-10.274-7.666-10.435a.87.87 0 0 0-.683-.439c-.524-.062-1.2-.131-1.418-.151-.246-.024-.436.091-.3.477.177.5 4.048 10.546 4.048 10.546h-7.738s-1.5-3.066-1.752-3.593c-.116-.24-.365-.3-.7-.306h-.429c-.076 0-.19 0-.171.224.026.3 1.208 6.272 1.208 6.272s-1.148 5.976-1.208 6.274c-.037.193.1.222.171.222h.429c.587-.006.58-.052.7-.3.255-.526 1.752-3.593 1.752-3.593h7.738s-3.873 10.043-4.047 10.545c-.134.385.056.5.3.477.22-.02.895-.089 1.418-.151a.875.875 0 0 0 .684-.437c.123-.163 7.665-10.435 7.665-10.435h9.186a3.151 3.151 0 0 0 3.2-2.6 3.163 3.163 0 0 0-3.201-2.597Zm8.191-14.26v2.727a1.064 1.064 0 0 1-1.026 1.092h-2.048a1.06 1.06 0 0 1-1.026-1.092v-1.091m-11.256 0v1.088a1.06 1.06 0 0 1-1.026 1.1h-2.048a1.069 1.069 0 0 1-1.026-1.1v-2.724m14.846-3.819H116a1.056 1.056 0 0 1 1.023 1.09c0 .713-.47 1.053-1.064 1.41a3.22 3.22 0 0 1-2.007.773 1.59 1.59 0 0 1-1.536-1.637 1.59 1.59 0 0 1 1.535-1.636Zm-10.237 0h-2.048a1.056 1.056 0 0 0-1.023 1.09c0 .713.47 1.053 1.064 1.41a3.22 3.22 0 0 0 2.007.773 1.59 1.59 0 0 0 1.536-1.637 1.586 1.586 0 0 0-1.536-1.636Z"/>
    <path stroke="#017169" stroke-width=".75" d="M100.724 97.907c-.217.588-1.201 2.727 1.967 2.727h12.29c3.166 0 2.182-2.139 1.966-2.727m-16.576.546h-1.724c-1.318 0-1.586.836-1.586 1.412s.4.769 1.066.769h1.418m17.75-2.181h1.726c1.316 0 1.586.836 1.586 1.412s-.4.769-1.066.769h-1.419m-18.041 7.092a1 1 0 0 1-.974-1.013v-4.35s2.509-7.135 2.852-7.847a3.699 3.699 0 0 1 2.216-1.519s1.075-.544 4.659-.544c3.584 0 4.657.544 4.657.544.643.195 1.813.594 2.179 1.482.417 1.011 2.889 7.885 2.889 7.885v4.349a1.003 1.003 0 0 1-.978 1.013h-17.5Zm29.742 8.161a.531.531 0 0 1-.513.546h-6.142a.528.528 0 0 1-.511-.546v-1.09a.529.529 0 0 1 .511-.546h6.142a.53.53 0 0 1 .513.546v1.09Z"/>
    <path stroke="#017169" stroke-width=".75" d="m117.321 135.525 2.954-2.637m14.883 2.637-2.954-2.637m-10.064-21.91h-1.019a3.101 3.101 0 0 0-3.071 3.118v15.584a3.1 3.1 0 0 0 3.071 3.118h10.237a3.101 3.101 0 0 0 3.071-3.118v-15.584a3.1 3.1 0 0 0-3.071-3.118m0 0h-.99m.99 0-6.526.011m2.96-.011h-3.026l-2.51.011m1.165-1.648a1.322 1.322 0 0 1 1.282 1.364c.006.174-.023.347-.085.51a1.333 1.333 0 0 1-.693.739 1.33 1.33 0 0 1-.504.116m5.633 0a1.323 1.323 0 0 1-1.28-1.364 1.323 1.323 0 0 1 1.28-1.364 1.325 1.325 0 0 1 1.28 1.364 1.324 1.324 0 0 1-1.279 1.364h-.001Zm-8.958 5.362a1.018 1.018 0 0 1 1.025-1h10.237a1.01 1.01 0 0 1 1.023 1v4.546a1.01 1.01 0 0 1-1.023 1h-10.237a1.016 1.016 0 0 1-1.025-1v-4.546Zm1.536 12.637a1.59 1.59 0 0 1-1.536-1.636 1.592 1.592 0 0 1 1.536-1.637 1.586 1.586 0 0 1 1.535 1.637 1.589 1.589 0 0 1-1.535 1.636Zm9.214 0a1.59 1.59 0 0 1-1.536-1.637 1.54 1.54 0 1 1 3.071 0 1.589 1.589 0 0 1-1.535 1.637Zm-7.328-17.988a1.322 1.322 0 0 1-1.28-1.364 1.324 1.324 0 0 1 1.28-1.364 1.326 1.326 0 0 1 1.28 1.364 1.323 1.323 0 0 1-1.279 1.364h-.001Zm-8.258 22.186 20.476-.132m-19.832 2.525 20.508.1"/>
    <path stroke="#017169" stroke-width="1.5" d="M219.142 109.18c0 59.746-48.863 108.179-109.139 108.179-.4 0-.786-.026-1.18-.029l.009.029L0 218.214l50.288-18.5A107.828 107.828 0 0 1 .862 109.179C.862 49.433 49.726 1 110.002 1s109.14 48.435 109.14 108.18Z"/>
    <path stroke="#2B2E34" stroke-width=".75" d="M78.553 165.973V53.247c0-2.95 1.968-5.362 4.373-5.362h53.233c2.4 0 4.373 2.413 4.373 5.362v112.726c0 2.95-1.968 5.362-4.373 5.362H82.926c-2.405-.004-4.373-2.417-4.373-5.362Z"/>
    <path stroke="#2B2E34" stroke-width=".5" d="M82.59 159.579h54.326"/>
    <path fill="#1F766B" d="M121.144 68.055v1.168a.26.26 0 0 0 .179.068c.061 0 .12-.025.163-.068v-1.168a.283.283 0 0 0-.163-.065.27.27 0 0 0-.179.065m-2.752 3.288a.31.31 0 0 0 .093.23.321.321 0 0 0 .229.092h1.961a.29.29 0 0 0 .268-.401.292.292 0 0 0-.268-.18h-1.645v-2.757a.315.315 0 0 0-.195-.293.309.309 0 0 0-.121-.024.316.316 0 0 0-.322.317v3.016Zm6.853.043a.278.278 0 0 0-.036-.135l-1.349-3.009a.402.402 0 0 0-.379-.26h-.031a.402.402 0 0 0-.384.26l-1.349 3.009a.289.289 0 0 0-.021.261.281.281 0 0 0 .163.163.292.292 0 0 0 .116.021.31.31 0 0 0 .3-.2l.306-.7h1.764l.3.68a.327.327 0 0 0 .427.2.297.297 0 0 0 .184-.283m-1.152-1.162h-1.276l.638-1.468.638 1.468Zm1.83 1.149a.307.307 0 0 0 .311.311.316.316 0 0 0 .223-.089.304.304 0 0 0 .093-.222v-2.174l.882 1.323a.31.31 0 0 0 .265.166.312.312 0 0 0 .27-.166l.887-1.333v2.179a.322.322 0 0 0 .545.226.322.322 0 0 0 .094-.226v-3.04a.326.326 0 0 0-.094-.228.32.32 0 0 0-.228-.094h-.068a.32.32 0 0 0-.29.166l-1.105 1.728-1.1-1.723a.337.337 0 0 0-.3-.171h-.063a.326.326 0 0 0-.228.094.32.32 0 0 0-.094.228v3.045Zm4.54-.005a.322.322 0 0 0 .094.226.319.319 0 0 0 .228.091.307.307 0 0 0 .224-.092.311.311 0 0 0 .092-.225v-3.051a.316.316 0 0 0-.195-.293.309.309 0 0 0-.121-.024.316.316 0 0 0-.322.318v3.05Zm1.93.29h2.137a.282.282 0 0 0 .264-.176.291.291 0 0 0 .021-.109.29.29 0 0 0-.285-.282h-1.821v-.976h1.562a.283.283 0 0 0 .202-.484.288.288 0 0 0-.202-.086h-1.562v-.944h1.8a.286.286 0 0 0 .285-.285.29.29 0 0 0-.084-.2.291.291 0 0 0-.201-.085h-2.116a.318.318 0 0 0-.322.322v2.988a.31.31 0 0 0 .093.23.321.321 0 0 0 .229.092m-10.833-12.607c-.331.008-1.108-.009-.978.149-.018.116.259.319.259.319.171-.006.34-.04.5-.1.911-.03 1.823.016 2.726.137.336-.022.92-.082 1.261-.118l-.317.098s.128.111.774.044h.005l-.418.092c.252.07.495.168.726.291.083.13.131.28.14.433.017.65.054.7-.218.955l.027-.022c-.31.265-.58.574-.8.917-.362.563-1.057 1.451-1.252 1.724-.195.273-.381.318-.738.637s-1.911 1.6-1.911 1.6-.275.278-.27.4c.005.122-.1.295.176.3.349.15.494.134.484-.131-.008-.15.02-.3.082-.437 0 0 .835-.472 1.5-.748a3.68 3.68 0 0 0 .879-.762s.214-.125.372-.243.883-.588.883-.588l.5.026.182-.482.056.805 1.36-.338.031-.588c.225.1 2.263.241 2.263.241-.172.34-.218.73-.131 1.1.158.483.205.996.137 1.5-.129.329-.134.719.111.71.245-.009.229-.017.433-.024.204-.007 1.084.25 1.157.006.073-.244.075-.137-.215-.229s-.845-.14-.937-.423c.006-.81.058-1.62.156-2.425-.006-.184.178-.85-.217-.965a46.63 46.63 0 0 1-1.258-.429v-.158l-1.378-.496a1.45 1.45 0 0 1-.066-.381c.023-.854.694-1.589.575-1.957a2.297 2.297 0 0 0-.448-.525c.345-.324.95-.893 1.137-1.074.348-.565.64-1.162.872-1.783 0 0 .384-.323.513-.448 0 0-.128-.418-.238-.353-.214.09-.121.03-.28.184-.159.154-.129.231-.218.317s-.823 1.483-1 1.655c-.177.172-.788.53-1.115.792a1.75 1.75 0 0 0-.221.2l-.02-.018-.206-.355c.11-.033.334-.107.351-.175a4.273 4.273 0 0 0-.013-.506 1.6 1.6 0 0 0-.159-.336.733.733 0 0 0-.8-.508.958.958 0 0 0-.682.436v.013s-.326-.013-.322.1c-.027.268.073.575.159.569a2.3 2.3 0 0 0 .274.008c.16.177.345.33.549.454h.013-.013l-.011.4h-.384l-.338-.382c-.345-.406-1.211.046-2 .057 0 0 .1.2.965.223l-.84.063s.055.2 1.107.2l-.895.086a.56.56 0 0 0 .343.151.78.78 0 0 1-.169.034 2.68 2.68 0 0 0-.376 0"/>
    <path fill="#1F766B" d="M129.913 55.411a6.527 6.527 0 0 1 2.577 5.635c-.252-4.2-2.793-5.121-2.793-5.121s-2.2-2.361-6.6-.374a6.277 6.277 0 0 1 6.813-.14m-10.816 3.194.085-.047 4.859 2.179.591.247-.275-.138.287.115-.568-.282-4.861-2.264-.026-.091-.612-.11.52.391Z"/>
    <path fill="#1F766B" d="m124.853 60.92-.494-.235-.356-.017.637.293.213-.041Zm-.139.262-.463-.221-.28-.286.67.32.073.187Z"/>
</svg>
