<svg width="25" height="25" viewBox="0 0 25 25" fill="none" xmlns="http://www.w3.org/2000/svg">
	<path fill-rule="evenodd" clip-rule="evenodd" d="M18.6298 5.00557L18.6894 5.22999L19.3526 7.72797C19.3837 7.78271 19.41 7.84298 19.4304 7.90938L19.403 7.91783L20.3594 11.5204H20.8673H21.0993V11.7524V19.9882V20.2202H20.8673H18.5796H17.9621H9.30258H8.68512H6.45458H6.22258V19.9882V18.2685C6.18666 18.1867 6.16539 18.0933 6.16539 17.9865V17.4752L6.22258 17.5252L6.22258 16.1873L5.15342 12.2566L5.1406 12.2755L5.07385 11.964L4.28613 9.06799L4.22491 8.84295L4.45027 8.78291L7.36265 8.00707C7.43395 7.97654 7.51026 7.94944 7.59189 7.92612L8.20578 7.75072L8.17954 7.78946L15.2657 5.90175L15.2558 5.86715C15.3924 5.82813 15.5216 5.80677 15.6441 5.80096L18.4055 5.06534L18.6298 5.00557ZM15.711 6.26332L7.78263 8.37538L6.83823 9.76948C6.81659 9.91699 6.78547 10.0824 6.71319 10.2089C6.62873 10.3567 6.47132 10.4829 6.33353 10.586C6.30111 10.6103 6.26894 10.6339 6.23698 10.6571L5.49652 11.7501L6.22258 14.4195V11.7524V11.5204H6.45458H9.63082C9.37066 9.90233 10.2021 8.33268 11.7121 7.92547C13.295 7.48303 14.9455 8.62502 15.4285 10.3743C15.5302 10.7304 15.5913 11.1366 15.5696 11.5204H17.6073H19.8794L18.9234 7.91975C18.8153 7.77455 18.6052 7.69305 18.2919 7.64178C18.1689 7.62166 18.0505 7.60888 17.9304 7.59593L17.9304 7.59593C17.8625 7.5886 17.7941 7.58122 17.724 7.57242C17.5537 7.55102 17.3574 7.51982 17.2118 7.4387C17.0472 7.35422 16.9122 7.19239 16.8029 7.05512C16.7755 7.02068 16.7487 6.98636 16.722 6.95226C16.6293 6.83362 16.5387 6.71774 16.4332 6.60975C16.3007 6.47402 16.1602 6.36805 15.9977 6.31086C15.9139 6.28139 15.8195 6.26314 15.711 6.26332ZM18.7524 7.27561C18.6217 7.23146 18.4885 7.20378 18.3668 7.18387C18.2329 7.16197 18.0894 7.14637 17.9606 7.13237C17.8963 7.12539 17.8357 7.11881 17.7819 7.11204C17.5987 7.08903 17.4905 7.06357 17.4364 7.03266L17.4366 7.03235L17.4251 7.02659C17.3636 6.99583 17.2859 6.91676 17.1659 6.76608C17.1438 6.73837 17.1206 6.70863 17.0963 6.67746L17.0963 6.67745C17.0017 6.55639 16.8904 6.41384 16.7653 6.28563C16.6859 6.20437 16.5973 6.12458 16.4972 6.05386L18.3005 5.57348L18.7524 7.27561ZM9.73698 11.991L9.76827 12.1045L9.95077 12.0986L13.5311 11.9844H17.6073C17.864 11.9844 18.0463 12.0506 18.1846 12.1456C18.3261 12.2427 18.4355 12.3795 18.529 12.5408C18.6096 12.6798 18.6723 12.8252 18.7356 12.972L18.7699 13.0514C18.8384 13.2088 18.9222 13.3954 19.0447 13.5178C19.1686 13.6418 19.3549 13.7243 19.5179 13.7892C19.5878 13.817 19.6552 13.8422 19.7216 13.8671L19.7217 13.8671L19.7217 13.8671C19.83 13.9076 19.9356 13.9471 20.0447 13.9951C20.3986 14.1508 20.5781 14.3104 20.5781 14.5549H20.6353V17.8812L19.9837 18.4513C19.9608 18.46 19.9375 18.469 19.9137 18.4784C19.8016 18.5225 19.6558 18.5839 19.5594 18.6803L19.5503 18.6894L19.5423 18.6994C19.4801 18.7771 19.4313 18.8775 19.3907 18.9703L18.4924 19.7562H8.77229L7.87404 18.9703C7.83343 18.8775 7.78456 18.7771 7.72242 18.6994L7.71439 18.6894L7.7053 18.6803C7.60892 18.5839 7.46315 18.5225 7.35104 18.4784C7.32723 18.469 7.30393 18.46 7.28099 18.4513L6.68658 17.9312V14.6601L7.63047 13.8342C7.66862 13.8198 7.7073 13.8049 7.74677 13.7892C7.90981 13.7243 8.09614 13.6418 8.22004 13.5178C8.33153 13.4064 8.41093 13.2417 8.47597 13.0944L9.73698 11.991ZM13.5237 11.5204L15.1076 11.4698C15.1218 11.1575 15.0716 10.814 14.9821 10.5007L14.9815 10.4986L14.9815 10.4986C14.5492 8.93162 13.1123 8.01527 11.8361 8.3726L11.8339 8.37323L11.8339 8.37321C10.5788 8.71111 9.83085 10.0629 10.1014 11.5204H10.2749H13.5237ZM5.26037 10.8819C5.35982 10.7592 5.47611 10.6539 5.58605 10.5644C5.68683 10.4824 5.7981 10.4016 5.89897 10.3287L6.39363 9.59848L6.39675 9.5754L6.39676 9.57539C6.41798 9.41839 6.44373 9.22793 6.49526 9.03899C6.52728 8.92159 6.5702 8.80055 6.63052 8.68229L4.79507 9.17124L5.26037 10.8819ZM8.56639 11.9844H6.68658V13.7561C6.79987 13.68 6.92081 13.6198 7.03317 13.5704C7.14733 13.5202 7.27364 13.4725 7.38863 13.4293L8.09202 12.8138L8.10083 12.7934C8.16368 12.6472 8.23858 12.473 8.3343 12.308C8.39812 12.198 8.47381 12.087 8.56639 11.9844ZM18.6983 11.9844C18.7909 12.087 18.8666 12.198 18.9304 12.308C19.0261 12.473 19.101 12.6472 19.1639 12.7934L19.1953 12.8662C19.2716 13.0413 19.3237 13.1406 19.3728 13.1897C19.4204 13.2374 19.5201 13.2907 19.6895 13.3581C19.7411 13.3786 19.8003 13.4009 19.8633 13.4245L19.8634 13.4245L19.8635 13.4246L19.8635 13.4246C19.9818 13.469 20.1132 13.5183 20.2315 13.5704C20.3631 13.6283 20.5063 13.7008 20.6353 13.7965V11.9844H18.6983ZM20.6353 18.6768C20.5804 18.7075 20.5259 18.7337 20.4754 18.7561C20.3945 18.7921 20.3059 18.826 20.2257 18.8562L19.776 19.2497L19.7739 19.2545C19.726 19.3681 19.6666 19.5092 19.5864 19.6429C19.5637 19.6807 19.5389 19.7187 19.5116 19.7562H20.6353V18.6768ZM7.75307 19.7562C7.72581 19.7187 7.70102 19.6807 7.67833 19.6429C7.59812 19.5092 7.53867 19.3681 7.49079 19.2545L7.48875 19.2497L7.03905 18.8562C6.95881 18.826 6.87022 18.7921 6.78931 18.7561C6.75642 18.7415 6.72186 18.7253 6.68658 18.7073V19.7562H7.75307ZM13.6609 12.5499C12.0228 12.5499 10.6837 14.0506 10.6837 15.8703C10.6837 17.6867 11.9627 19.1908 13.6609 19.1908C15.2991 19.1908 16.6382 17.69 16.6382 15.8703C16.6382 14.0506 15.2991 12.5499 13.6609 12.5499ZM11.1477 15.8703C11.1477 14.2584 12.325 13.0139 13.6609 13.0139C14.9969 13.0139 16.1742 14.2584 16.1742 15.8703C16.1742 17.4822 14.9969 18.7268 13.6609 18.7268C12.2708 18.7268 11.1477 17.4855 11.1477 15.8703ZM8.68512 14.952C8.09945 14.952 7.59522 15.4562 7.59522 16.0419C7.59522 16.6276 8.09945 17.1318 8.68512 17.1318C9.26051 17.1318 9.77502 16.6948 9.77502 16.0419C9.77502 15.4562 9.2708 14.952 8.68512 14.952ZM8.05922 16.0419C8.05922 15.7125 8.35571 15.416 8.68512 15.416C9.01454 15.416 9.31102 15.7125 9.31102 16.0419C9.31102 16.4184 9.02483 16.6678 8.68512 16.6678C8.35571 16.6678 8.05922 16.3713 8.05922 16.0419ZM18.5796 14.952C17.9939 14.952 17.4897 15.4562 17.4897 16.0419C17.4897 16.6276 17.9939 17.1318 18.5796 17.1318C19.155 17.1318 19.6695 16.6948 19.6695 16.0419C19.6695 15.4562 19.1653 14.952 18.5796 14.952ZM17.9537 16.0419C17.9537 15.7125 18.2502 15.416 18.5796 15.416C18.909 15.416 19.2055 15.7125 19.2055 16.0419C19.2055 16.4184 18.9193 16.6678 18.5796 16.6678C18.2502 16.6678 17.9537 16.3713 17.9537 16.0419ZM18.4615 9.69434C18.3172 9.11728 17.7373 8.74976 17.1507 8.89641C16.5736 9.04067 16.2061 9.62064 16.3527 10.2072C16.4959 10.7799 17.0681 11.1462 17.6501 11.0084C18.2664 10.922 18.6009 10.2521 18.4615 9.69434ZM17.2632 9.34655C17.5917 9.26443 17.9268 9.46884 18.0113 9.80688C18.0996 10.16 17.8684 10.5136 17.5785 10.5499L17.5646 10.5516L17.551 10.555C17.2225 10.6371 16.8874 10.4327 16.8029 10.0947C16.7208 9.76619 16.9252 9.43106 17.2632 9.34655Z" fill="currentcolor"/>
</svg>
