<svg width="25" height="25" viewBox="0 0 25 25" fill="none" xmlns="http://www.w3.org/2000/svg">
	<path d="M12.5625 15.3312L13.3403 16L19.3681 9.6242L18.5903 9L12.5625 15.3312ZM17.6667 13.5478C17.7639 13.414 17.9097 13.3694 18.1528 13.3694C18.3472 13.3694 18.5417 13.414 18.6389 13.5478C18.7361 13.6815 18.7847 13.9045 18.7847 14.172C18.7847 14.4841 18.7361 14.707 18.6389 14.8408C18.5417 14.9745 18.3958 15.0191 18.1528 15.0191C17.7153 15.0191 17.5208 14.7516 17.5208 14.172C17.5208 13.8599 17.5694 13.6815 17.6667 13.5478ZM16.4514 14.9745C16.5486 15.1975 16.6458 15.3312 16.8403 15.465C16.9861 15.5987 17.1806 15.6879 17.4236 15.7325C17.6667 15.7771 17.9097 15.8217 18.1528 15.8217C18.3958 15.8217 18.6875 15.7771 18.8819 15.7325C19.125 15.6879 19.3194 15.5987 19.4653 15.465C19.6111 15.3312 19.7569 15.1529 19.8542 14.9745C19.9514 14.7516 20 14.5287 20 14.2166C20 13.9045 19.9514 13.6815 19.8542 13.4586C19.7569 13.2357 19.6111 13.1019 19.4653 12.9682C19.3194 12.8344 19.125 12.7452 18.8819 12.7006C18.6389 12.6561 18.3958 12.6115 18.1528 12.6115C17.9097 12.6115 17.6181 12.6561 17.4236 12.7006C17.1806 12.7452 16.9861 12.879 16.8403 13.0127C16.6944 13.1465 16.5486 13.3248 16.4514 13.5032C16.3542 13.7261 16.3056 13.949 16.3056 14.2611C16.3056 14.4841 16.3542 14.7516 16.4514 14.9745ZM13.4375 9.98089C13.5347 9.84713 13.6806 9.80255 13.9236 9.80255C14.1181 9.80255 14.3125 9.84713 14.4097 9.98089C14.5069 10.1146 14.5556 10.3376 14.5556 10.6051C14.5556 10.9172 14.5069 11.1401 14.4097 11.2739C14.3125 11.4076 14.1667 11.4522 13.9236 11.4522C13.4861 11.4522 13.2917 11.1847 13.2917 10.6051C13.2917 10.3376 13.3403 10.1146 13.4375 9.98089ZM12.1736 11.4076C12.2708 11.6306 12.3681 11.7643 12.5625 11.8981C12.7083 12.0318 12.9028 12.121 13.1458 12.1656C13.3889 12.2102 13.6319 12.2548 13.875 12.2548C14.1181 12.2548 14.4097 12.2102 14.6042 12.1656C14.8472 12.121 15.0417 12.0318 15.1875 11.8981C15.3333 11.7643 15.4792 11.586 15.5764 11.4076C15.6736 11.1847 15.7222 10.9618 15.7222 10.6497C15.7222 10.3376 15.6736 10.1146 15.5764 9.89172C15.4792 9.66879 15.3333 9.53503 15.1875 9.40127C15.0417 9.26752 14.8472 9.17834 14.6042 9.13376C14.3611 9.08917 14.1181 9.04459 13.875 9.04459C13.6319 9.04459 13.3403 9.08917 13.1458 9.13376C12.9028 9.17834 12.7083 9.3121 12.5625 9.44586C12.4167 9.57962 12.2708 9.75796 12.1736 9.93631C12.0764 10.1592 12.0278 10.3822 12.0278 10.6943C12.0764 10.9172 12.125 11.1847 12.1736 11.4076ZM7.65278 10.6051C7.84722 10.2038 8.13889 10.0255 8.57639 10.0255C9.01389 10.0255 9.30555 10.2484 9.5 10.6497C9.69444 11.051 9.79167 11.6752 9.79167 12.4331C9.79167 13.2803 9.69444 13.9045 9.5 14.3057C9.30555 14.707 9.01389 14.8854 8.57639 14.8854C8.13889 14.8854 7.84722 14.6624 7.65278 14.2611C7.45833 13.8153 7.36111 13.2357 7.36111 12.4331C7.36111 11.6306 7.45833 11.0064 7.65278 10.6051ZM6.63194 15.0637C7.02083 15.6879 7.70139 15.9554 8.57639 15.9554C9.40278 15.9554 10.0347 15.6879 10.4722 15.1083C10.9097 14.5287 11.1528 13.6369 11.1528 12.4777C11.1528 11.2739 10.9583 10.3822 10.5208 9.84713C10.0833 9.26752 9.45139 9 8.57639 9C7.75 9 7.11806 9.26752 6.68056 9.84713C6.24306 10.4268 6 11.3185 6 12.4777C6 13.5924 6.19444 14.4841 6.63194 15.0637Z" fill="currentcolor"/>
</svg>
