<svg width="25" height="25" viewBox="0 0 25 25" fill="none" xmlns="http://www.w3.org/2000/svg">
	<path fill-rule="evenodd" clip-rule="evenodd" d="M15.4607 3.93754H15.2461V4.15213V7.82881H11.5694H11.3548V8.04341V11.4197V11.6343H11.5694H15.2461V15.3109V15.5255H15.4607H18.8941H19.1087V15.3109V11.6343H22.7854H23V11.4197V8.04341V7.82881H22.7854H19.1087V4.15213V3.93754H18.8941H15.4607ZM15.6753 8.04341V4.36672H18.6795V8.04341V8.258H18.8941H22.5708V11.2051H18.8941H18.6795V11.4197V15.0963H15.6753V11.4197V11.2051H15.4607H11.784V8.258H15.4607H15.6753V8.04341ZM5.28496 8.56138C5.58999 8.3435 5.8656 8.43454 5.97144 8.52918C6.18357 8.82104 7.72914 11.1397 7.89467 11.4156L7.89447 11.4157L7.90013 11.4242C7.91555 11.4474 7.93512 11.5142 7.92238 11.6415C7.91098 11.7556 7.87663 11.887 7.8282 12.0115C7.73462 12.1699 7.5388 12.5339 7.36705 12.8568C7.27746 13.0252 7.19327 13.1847 7.13149 13.302L7.05771 13.4422L7.03738 13.481L7.03206 13.4911L7.03069 13.4937L7.03034 13.4944L7.03025 13.4946L7.03023 13.4946L7.22032 13.5942L7.03022 13.4946L6.97572 13.5987L7.034 13.7007L7.22032 13.5942C7.034 13.7007 7.03403 13.7007 7.03407 13.7008L7.03415 13.7009L7.03435 13.7013L7.03487 13.7022L7.03644 13.7049L7.04169 13.7137C7.04616 13.7212 7.05259 13.7318 7.06114 13.7455C7.07825 13.7729 7.10386 13.8127 7.13931 13.8649C7.21021 13.9694 7.32047 14.1236 7.48076 14.3276C7.80132 14.7356 8.32214 15.3428 9.12866 16.1494C9.93508 16.9558 10.5143 17.4486 10.8949 17.7414C11.0853 17.8878 11.2263 17.9844 11.3214 18.0453C11.369 18.0758 11.4051 18.0973 11.4303 18.1117C11.4429 18.1189 11.4527 18.1243 11.4599 18.1281L11.4686 18.1328L11.4715 18.1342L11.4726 18.1348L11.473 18.135L11.4732 18.1351C11.4733 18.1352 11.4734 18.1352 11.5694 17.9433L11.4734 18.1352L11.5788 18.1879L11.6798 18.1273L11.6798 18.1273L11.68 18.1272L11.6805 18.1268L11.6829 18.1254L11.6924 18.1198L11.7289 18.098C11.7606 18.0792 11.8063 18.0521 11.8623 18.0192C11.9742 17.9534 12.127 17.8647 12.2901 17.7724C12.4536 17.6801 12.6263 17.5849 12.7785 17.5062C12.9349 17.4253 13.0571 17.3684 13.1251 17.3457L13.1474 17.3383L13.1676 17.3261C13.279 17.2593 13.4018 17.226 13.5114 17.2205C13.6254 17.2148 13.7038 17.2397 13.7393 17.2634L13.7392 17.2636L13.748 17.2689C14.0288 17.4374 16.4259 19.0356 16.6481 19.2022L16.6636 19.2138L16.6809 19.2225C16.6971 19.2306 16.75 19.2799 16.7555 19.4182C16.7607 19.5464 16.7194 19.7146 16.6022 19.8786C16.4636 20.0727 16.0837 20.5652 15.67 20.9999C15.4628 21.2177 15.2529 21.4147 15.0649 21.5522C14.9708 21.621 14.8876 21.6709 14.8173 21.7015C14.7449 21.7331 14.7015 21.7375 14.6809 21.7355L14.6702 21.7344H14.6595C14.3988 21.7344 13.7302 21.7247 12.5981 21.1899C11.4604 20.6524 9.84924 19.582 7.7154 17.4482C5.58157 15.3143 4.51116 13.7032 3.97372 12.5655C3.4389 11.4333 3.42918 10.7647 3.42918 10.5041C3.42918 10.4776 3.43912 10.4287 3.47527 10.3533C3.51034 10.2802 3.56379 10.195 3.6344 10.1002C3.77563 9.9105 3.97204 9.69968 4.18639 9.49236C4.61487 9.07793 5.09307 8.69844 5.28496 8.56138ZM7.49445 13.6239L7.4679 13.5843L7.51122 13.502C7.57283 13.385 7.65673 13.2261 7.74597 13.0583C7.92599 12.7199 8.12319 12.3539 8.20547 12.2168L8.21432 12.202L8.2207 12.1861C8.28358 12.0289 8.33269 11.8517 8.34944 11.6842C8.36515 11.5271 8.35646 11.3387 8.26033 11.1909C8.07385 10.8824 6.4807 8.49264 6.30472 8.258L6.29557 8.2458L6.28479 8.23501C6.03909 7.98932 5.52161 7.86491 5.0355 8.21213C4.82682 8.36119 4.3322 8.75424 3.88801 9.18387C3.66602 9.39858 3.45113 9.62767 3.29014 9.84391C3.20964 9.95204 3.13925 10.0614 3.08826 10.1678C3.03834 10.2719 3 10.3874 3 10.5041C3 10.8156 3.01889 11.549 3.58565 12.7488C4.14979 13.943 5.25391 15.5936 7.41192 17.7517C9.56994 19.9097 11.2206 21.0138 12.4148 21.5779C13.6028 22.1391 14.3335 22.1632 14.6502 22.1636C14.7685 22.1726 14.8852 22.1401 14.9888 22.095C15.098 22.0474 15.2093 21.9783 15.3182 21.8987C15.5361 21.7393 15.7661 21.5215 15.9809 21.2958C16.4113 20.8435 16.8039 20.3346 16.9514 20.1281C17.1204 19.8916 17.1936 19.6306 17.1844 19.4011C17.1759 19.1883 17.0907 18.959 16.8914 18.8484C16.5884 18.6279 14.2763 17.0868 13.9728 16.9033C13.8373 16.8149 13.6603 16.7834 13.49 16.7919C13.3202 16.8004 13.1362 16.8493 12.9668 16.9464C12.8646 16.9832 12.7252 17.0506 12.5813 17.125C12.4224 17.2072 12.2446 17.3052 12.079 17.3988C11.9131 17.4925 11.7582 17.5826 11.6449 17.6491L11.5687 17.694L11.5527 17.6838C11.469 17.6303 11.3382 17.5409 11.1566 17.4012C10.7933 17.1218 10.228 16.6418 9.43214 15.8459C8.63638 15.0501 8.12715 14.4556 7.81824 14.0625C7.6638 13.8659 7.55946 13.7197 7.49445 13.6239Z" fill="currentcolor"/>
</svg>
