<svg width="25" height="25" viewBox="0 0 25 25" fill="none" xmlns="http://www.w3.org/2000/svg">
	<path fill-rule="evenodd" clip-rule="evenodd" d="M13.617 7.4C13.617 7.31246 13.546 7.2415 13.4585 7.2415C13.371 7.2415 13.3 7.31246 13.3 7.4V7.6614L5.86498 7.27517L5.8585 7.275C5.40218 7.275 5.0335 7.6189 5.0335 8C5.0335 8.3811 5.40218 8.725 5.8585 8.725L5.86498 8.72483L13.3 8.3386V9.34853C12.9541 9.43192 12.65 9.56129 12.3764 9.7269C11.8998 10.0154 11.5235 10.409 11.1814 10.8415H5.40581C5.40414 10.8373 5.4023 10.8332 5.40027 10.8291C5.08006 10.1887 4.53207 9.7415 3.7585 9.7415C2.77096 9.7415 2 10.5125 2 11.5C2 12.4875 2.77096 13.2585 3.7585 13.2585C4.41649 13.2585 4.96698 12.9273 5.29441 12.3815C5.30722 12.3602 5.31482 12.3361 5.3166 12.3113L5.31735 12.3008C5.52625 12.3568 5.7484 12.4163 5.98016 12.4781C7.25177 12.8172 8.81878 13.2273 10.1 13.5259V14.6C10.1 15.2966 10.2484 15.8211 10.5359 16.2085C10.8241 16.5968 11.2375 16.8277 11.7283 16.9651C12.2167 17.1019 12.7922 17.149 13.419 17.1631C13.8122 17.172 14.2335 17.1679 14.6707 17.1636C14.9286 17.1611 15.192 17.1585 15.4585 17.1585H15.4757C16.9131 17.1585 18.4568 17.1585 19.6417 16.8018C20.2397 16.6217 20.7607 16.347 21.1324 15.9233C21.5067 15.4964 21.717 14.9325 21.717 14.2C21.717 14.0893 21.7113 13.9797 21.7001 13.8713C21.729 13.8139 21.7205 13.7435 21.6768 13.6945C21.4826 12.481 20.601 11.426 19.3808 10.6536C17.991 9.77382 16.1362 9.2415 14.2585 9.2415C14.0303 9.2415 13.8171 9.25719 13.617 9.28704V8.32821L21.252 8.72483L21.2585 8.725C21.7148 8.725 22.0835 8.3811 22.0835 8C22.0835 7.6189 21.7148 7.275 21.2585 7.275L21.252 7.27517L13.617 7.67179V7.4ZM13.3 7.91174L5.85539 7.52501C5.51343 7.52655 5.2835 7.78176 5.2835 8C5.2835 8.21824 5.51343 8.47346 5.85539 8.47499L13.3 8.08826V7.91174ZM13.617 8.07787V7.92213L21.2616 7.52501C21.6036 7.52655 21.8335 7.78176 21.8335 8C21.8335 8.21824 21.6036 8.47346 21.2616 8.47499L13.617 8.07787ZM3.7585 10.0585C4.33516 10.0585 4.76402 10.3575 5.04679 10.8415H3.6585C3.34836 10.8415 3.17919 11.1107 3.1629 11.3387C3.15438 11.4581 3.18337 11.5887 3.26955 11.6921C3.35663 11.7966 3.4874 11.8556 3.64679 11.8584C3.65469 11.86 3.66738 11.8628 3.68406 11.8667C3.71719 11.8746 3.76425 11.8864 3.82462 11.9019C3.94511 11.933 4.11517 11.9781 4.32533 12.0344C4.48073 12.076 4.658 12.1236 4.85296 12.176L5.00552 12.217L5.00317 12.25C4.72894 12.6852 4.28783 12.9415 3.7585 12.9415C2.94604 12.9415 2.317 12.3125 2.317 11.5C2.317 10.6875 2.94604 10.0585 3.7585 10.0585ZM4.93619 11.8701L5.02853 11.895L5.08113 11.1585H3.6585C3.56864 11.1585 3.48781 11.2393 3.4791 11.3613C3.47512 11.4169 3.48988 11.4613 3.51308 11.4892C3.53324 11.5134 3.5732 11.5415 3.6585 11.5415C3.67941 11.5415 3.70155 11.546 3.70905 11.5476L3.71024 11.5478C3.72313 11.5504 3.739 11.554 3.75701 11.5583C3.79327 11.5668 3.84278 11.5793 3.90371 11.595C4.02579 11.6264 4.19714 11.6719 4.40729 11.7281C4.56328 11.7699 4.74126 11.8177 4.93619 11.8701ZM5.39894 11.1585L5.34035 11.9787C5.56603 12.0393 5.80801 12.1042 6.06184 12.1719C7.37428 12.5218 8.997 12.9462 10.2941 13.2456C10.3661 13.2622 10.417 13.3262 10.417 13.4V14.6C10.417 15.2534 10.5561 15.7039 10.7905 16.0196C11.0241 16.3344 11.367 16.5348 11.8137 16.6599C12.2628 16.7856 12.8061 16.8322 13.4261 16.8462C13.8151 16.855 14.2265 16.8509 14.6592 16.8467C14.9181 16.8441 15.1846 16.8415 15.4585 16.8415C16.9162 16.8415 18.4149 16.8401 19.5503 16.4982C20.1148 16.3283 20.575 16.078 20.894 15.7142C21.2103 15.3536 21.4 14.8675 21.4 14.2L21.3998 14.1628C21.1311 14.356 20.7664 14.4897 20.2354 14.5812C19.4956 14.7087 18.4084 14.7585 16.7585 14.7585C15.671 14.7585 15 13.9875 15 13.1C15 12.371 15.0376 11.7974 15.1214 11.3475C15.2052 10.898 15.3372 10.5604 15.5347 10.3135C15.7681 10.0217 16.077 9.87602 16.4503 9.80506C15.7439 9.64502 15.0035 9.5585 14.2585 9.5585C13.5352 9.5585 12.989 9.72669 12.5406 9.9981C12.0896 10.2711 11.7286 10.6538 11.3836 11.0973C11.3536 11.1359 11.3074 11.1585 11.2585 11.1585H5.39894ZM19.2112 10.9214C20.2279 11.565 20.9631 12.3876 21.2577 13.3044L18.0334 10.3104C18.454 10.4875 18.8495 10.6924 19.2112 10.9214ZM15.7823 10.5115C16.0721 10.1493 16.5283 10.0629 17.2964 10.0587L21.3338 13.8077C21.1157 14.0115 20.7851 14.1647 20.1816 14.2688C19.4714 14.3913 18.4086 14.4415 16.7585 14.4415C15.846 14.4415 15.317 13.8125 15.317 13.1C15.317 12.379 15.3544 11.8276 15.4331 11.4056C15.5118 10.9832 15.6298 10.7021 15.7823 10.5115Z" fill="currentcolor"/>
	<path d="M21.1585 17.6415C21.246 17.6415 21.317 17.7125 21.317 17.8H21.1585C21.317 17.8 21.317 17.7997 21.317 17.8L21.317 17.8012L21.317 17.8026L21.3169 17.8055L21.3166 17.8122L21.3159 17.821L21.3149 17.8293C21.3133 17.8423 21.3103 17.8582 21.3052 17.8767C21.2949 17.9137 21.2763 17.9598 21.2432 18.011C21.1768 18.1139 21.0566 18.2309 20.8437 18.3408C20.4224 18.5583 19.617 18.7585 18.0585 18.7585H9.55849C9.47096 18.7585 9.39999 18.6875 9.39999 18.6C9.39999 18.5125 9.47096 18.4415 9.55849 18.4415H18.0585C19.6 18.4415 20.3445 18.2417 20.6983 18.0592C20.8729 17.9691 20.9465 17.8861 20.9769 17.839C20.9923 17.8152 20.9978 17.7988 20.9997 17.7921L21.0003 17.7895C21.0057 17.7069 21.0745 17.6415 21.1585 17.6415Z" fill="currentcolor"/>
</svg>