<svg width="204" height="60" viewBox="0 0 204 60" fill="none" xmlns="http://www.w3.org/2000/svg">
	<path fill-rule="evenodd" clip-rule="evenodd" d="M191.635 4.30177C191.581 4.33853 191.535 4.38746 191.461 4.47421C175.373 -6.18101 158.901 5.59968 159.8 5.2C177.802 -2.96656 187.861 4.52028 190.045 6.4665C189.833 6.75328 189.283 7.72659 188.624 8.88986C187.458 10.9504 185.954 13.6071 185.4 14.1C184.972 14.5285 183.941 15.2151 182.845 15.9448L182.845 15.9449L182.845 15.945L182.844 15.9452L182.844 15.9456C181.894 16.5781 180.896 17.2429 180.2 17.8C179.8 18.1 179.5 18.4 179.2 18.7C179.1 18.7 179.1 18.6 179.1 18.6L178.1 17C178.201 16.9597 178.322 16.9153 178.452 16.8677C178.966 16.6791 179.62 16.4395 179.7 16.2C179.77 15.921 179.694 15.0094 179.641 14.3816L179.641 14.381C179.618 14.1092 179.6 13.8907 179.6 13.8C179.6 13.5 178.9 12.2 178.9 12.2C178.9 12.2 178 9.4 175.2 9.8C174 10 172.5 10.8 172 11.8V11.9C172 11.9 170.5 11.8 170.5 12.3C170.4 13.5 170.8 15 171.2 14.9C171.251 14.9 171.335 14.9066 171.439 14.9147L171.439 14.9147C171.739 14.9381 172.203 14.9743 172.5 14.9C172.8 15.6 175.1 17 175.1 17L175 18.9H173.2C173.033 18.7 172.856 18.4889 172.678 18.2778L172.676 18.2762C172.321 17.8545 171.966 17.4329 171.7 17.1C170.671 15.8783 168.65 16.3104 166.354 16.8012C165.08 17.0737 163.721 17.3643 162.4 17.4C162.4 17.4 162.9 18.3 166.9 18.4L163 18.7C163 18.7 163.3 19.6 168.1 19.6L163.9 20C164.2 20.4 164.8 20.6 165.5 20.7C165.2 20.8 164.9 20.9 164.7 20.9H163L152.7 21.4C151.646 21.4 149.556 21.4 148.614 21.6427L141.7 18.4L141.6 18L138.7 17.5L141.2 19.3L141.5 19.1L148.192 22.0908L148.2 22.1C148.1 22.6 149.4 23.6 149.4 23.6C149.4 23.6 150.279 23.5451 151.019 23.3539L164.063 29.1836L165.1 30.3L167.3 31.3L166.9 30.4L165.6 29.7L166.9 30.2998L166.9 30.3L167.9 30.1L165.6 29L164.1 28.9063L151.71 23.0949C152.666 22.6016 156.495 23.0015 159.789 23.3455C161.761 23.5514 163.541 23.7374 164.4 23.7C165.2 23.65 166.275 23.55 167.35 23.45C168.425 23.35 169.5 23.25 170.3 23.2L168.9 23.6C168.9 23.6 169.5 24.1 172.5 23.8L170.6 24.2C170.6 24.2 172.8 24.8 174 25.6C174.4 26.2 174.6 26.9 174.7 27.6C174.712 27.9725 174.726 28.3019 174.739 28.5953C174.827 30.6651 174.839 30.949 173.7 32L173.8 31.9C173.67 32.0199 173.543 32.1358 173.419 32.2496C172.296 33.2749 171.36 34.1298 170.1 36.2C168.999 37.8835 167.27 40.1959 165.943 41.9699L165.941 41.9715L165.941 41.9719C165.219 42.9367 164.617 43.7421 164.3 44.2C163.775 44.9576 163.251 45.3416 162.588 45.8271C162.113 46.1746 161.568 46.5742 160.9 47.2C159.3 48.7 152 54.6 152 54.6C152 54.6 150.7 55.9 150.7 56.5C150.7 56.6313 150.676 56.7721 150.652 56.912C150.567 57.4118 150.484 57.9 151.5 57.9C153.1 58.6 153.8 58.5 153.8 57.3C153.8 56.1 154.2 55.3 154.2 55.3C154.2 55.3 158.1 53.1 161.2 51.8C162.8 51.1 165.3 48.3 165.3 48.3C165.3 48.3 166.3 47.7 167 47.2C167.7 46.7 171.1 44.5 171.1 44.5L173.4 44.6L174.2 42.4L174.5 46.1L180.8 44.5L180.9 41.8C181.9 42.3 191.4 42.9 191.4 42.9C191.4 42.9 190 45.5 190.8 48C191.3 49.7 192 53.5 191.4 55C190.8 56.5 190.8 58.3 191.9 58.3C192.478 58.3 192.752 58.2724 193.012 58.2462C193.248 58.2225 193.473 58.2 193.9 58.2C194.137 58.2 194.597 58.2835 195.153 58.3844C196.705 58.6661 199.006 59.0835 199.3 58.2C199.327 58.1009 199.352 58.0148 199.373 57.9398C199.453 57.6588 199.489 57.5333 199.442 57.4634C199.404 57.4069 199.312 57.3867 199.146 57.3503C198.963 57.3101 198.69 57.2501 198.3 57.1C198.021 57.014 197.681 56.9327 197.315 56.845C195.979 56.5248 194.293 56.1206 193.9 55.1C193.65 54.2859 194.026 50.4132 194.319 47.4107C194.493 45.6185 194.637 44.1364 194.6 43.8C194.6 43.6277 194.629 43.3747 194.664 43.0747V43.0746V43.0744V43.0743V43.0741C194.811 41.8074 195.055 39.7042 193.6 39.3C192.9 39.1 190.3 38.2 187.8 37.3V36.6L181.4 34.3C181.4 34.1971 181.365 34.0824 181.318 33.9317C181.229 33.6432 181.1 33.2226 181.1 32.5C181.154 30.3442 182.079 28.3628 182.843 26.7277C183.496 25.329 184.031 24.1838 183.8 23.4C183.7 22.9 182.7 21.9 181.7 21C182.053 20.6687 182.465 20.2837 182.902 19.8752L182.903 19.875C184.444 18.4342 186.299 16.7012 187 16C188.2 14.8 191.1 7.7 191.1 7.7C191.1 7.7 191.257 7.56918 191.494 7.36934C194.362 8.91028 202.513 14.668 203.5 30.7C203.595 32.5142 205.241 15.3647 193.289 5.80297C193.369 5.72801 193.44 5.65957 193.5 5.6C193.5 5.6 192.9 3.7 192.4 4C192.177 4.0891 192.024 4.14347 191.912 4.183C191.772 4.23289 191.698 4.25915 191.635 4.30177ZM130.3 17.9C129.3 20.4 128.1 21.3 126.3 21.3C125.5 21.3 124.9 21.2 124.4 21.1C124.1 21 123.8 20.7 123.8 20.3C123.8 19.8 124.2 19.5 124.6 19.5C124.65 19.5 124.725 19.525 124.8 19.55C124.875 19.575 124.95 19.6 125 19.6C125.3 19.7 125.7 19.8 126.3 19.8C127.4 19.8 128 19.1 128.7 17.6L128.8 17.4L123.7 6.7C123.6 6.5 123.6 6.4 123.6 6.2C123.6 5.7 124 5.3 124.5 5.3C125 5.3 125.2 5.6 125.4 6L129.6 15.5L133.3 6C133.5 5.6 133.7 5.3 134.2 5.3C134.7 5.3 135.1 5.7 135.1 6.2C135.1 6.24995 135.075 6.32486 135.05 6.39979L135.05 6.4L135.05 6.40021C135.025 6.47514 135 6.55005 135 6.6L130.3 17.9ZM111.2 11.4C111.2 14.2 113.4 16.1 115.6 16.1C117.9 16.1 119.8 14.4 119.9 11.4C119.9 8.5 117.9 6.7 115.6 6.7C113.3 6.7 111.2 8.6 111.2 11.4ZM110.4 17.6C109.9 17.6 109.5 17.2 109.5 16.7V1.2C109.5 0.7 109.9 0.3 110.4 0.3C110.9 0.3 111.3 0.7 111.3 1.2V7.9C112.3 6.4 113.7 5.2 115.9 5.2C118.8 5.2 121.7 7.5 121.7 11.5C121.7 15.5 118.8 17.8 115.9 17.8C113.7 17.8 112.2 16.6 111.3 15.2V16.7C111.3 17.2 110.9 17.6 110.4 17.6ZM92.3 16.2C94.6 16.2 96.7 14.3 96.7 11.5C96.7 8.7 94.5 6.8 92.3 6.8C90 6.8 88.1 8.5 88 11.5C88 14.4 90 16.2 92.3 16.2ZM97.5 0.3C98 0.3 98.4 0.7 98.4 1.2V16.6C98.4 17.1 98 17.5 97.5 17.5C97 17.5 96.6 17.1 96.6 16.6V15C95.7 16.5 94.2 17.7 92 17.7C89.1 17.7 86.2 15.4 86.2 11.4C86.2 7.4 89.1 5.1 92 5.1C94.2 5.1 95.7 6.3 96.6 7.7V1.2C96.6 0.7 97 0.3 97.5 0.3ZM83.2 15.3C83.2 15.5 83.1 15.7 82.9 15.9C81.8 17 80.4 17.8 78.2 17.7C74.9 17.7 72.2 15.1 72.2 11.4C72.2 7.9 74.7 5.1 78 5.1C81.6 5.1 83.6 8 83.6 11.2C83.6 11.7 83.2 12 82.8 12H74.1C74.4 14.6 76.2 16.1 78.4 16.1C79.9 16.1 81 15.5 81.9 14.7C82 14.6 82.2 14.5 82.4 14.5C82.9 14.5 83.2 14.9 83.2 15.3ZM78.1 6.7C76 6.7 74.4 8.4 74.2 10.8H82C81.8 8.6 80.5 6.7 78.1 6.7ZM65 17.6C64.5 17.6 64.1 17.2 64.1 16.7V6.2C64.1 5.7 64.5 5.3 65 5.3C65.5 5.3 65.9 5.7 65.9 6.2V8.5C66.8 6.5 68.6 5.3 70.1 5.3C70.7 5.3 71 5.7 71 6.2C71 6.7 70.7 7 70.2 7.1C67.8 7.4 65.9 9.1 65.9 12.6V16.7C65.9 17.2 65.5 17.6 65 17.6ZM60.4 15.3C60.4 15.5 60.3 15.7 60.1 15.9C59 17 57.6 17.8 55.4 17.7C52.1 17.7 49.4 15.1 49.4 11.4C49.4 7.9 51.9 5.1 55.2 5.1C58.8 5.1 60.8 8 60.8 11.2C60.8 11.7 60.4 12 60 12H51.3C51.6 14.6 53.4 16.1 55.6 16.1C57.1 16.1 58.2 15.5 59.1 14.7C59.2 14.6 59.4 14.5 59.6 14.5C60.1 14.5 60.4 14.9 60.4 15.3ZM55.3 6.7C53.2 6.7 51.6 8.4 51.4 10.8H59.2C59 8.6 57.7 6.7 55.3 6.7ZM35.7 16.9C35.6 17.4 35.2 17.7 34.7 17.7C34.3 17.7 33.9 17.4 33.7 17L30 6.8C30 6.75859 29.9828 6.70002 29.9627 6.63141L29.9627 6.63137C29.9343 6.53431 29.9 6.41716 29.9 6.3C29.9 5.8 30.3 5.4 30.8 5.4C31.3 5.4 31.6 5.7 31.7 6.1L34.7 15.2L37.8 6.1C38 5.7 38.2 5.4 38.7 5.4H38.8C39.3 5.4 39.6 5.7 39.7 6.1L42.7 15.2L45.8 6.1C46 5.7 46.2 5.4 46.7 5.4C47.2 5.4 47.6 5.8 47.6 6.2C47.6 6.31716 47.5657 6.43431 47.5373 6.53137L47.5372 6.53141C47.5171 6.60002 47.5 6.65859 47.5 6.7L43.8 16.9C43.6 17.4 43.2 17.7 42.8 17.7H42.7C42.2 17.7 41.9 17.4 41.7 16.9L38.7 8.1L35.7 16.9ZM17.2 11.5C17.2 14.1 19.2 16.2 21.7 16.2C24.3 16.2 26.2 14.1 26.1 11.5C26.1 8.9 24.2 6.8 21.6 6.8C19 6.8 17.2 9 17.2 11.5ZM28 11.5C28 14.9 25.3 17.8 21.7 17.8C18.1 17.8 15.4 14.9 15.4 11.5C15.4 8.1 18.1 5.2 21.7 5.2C25.3 5.2 28 8.1 28 11.5ZM2.29999 11.4C2.29999 14.2 4.49999 16.1 6.7 16.1C9.09999 16.1 11 14.4 11 11.4C11 8.5 8.99999 6.7 6.7 6.7C4.4 6.7 2.29999 8.6 2.29999 11.4ZM1.49999 21.3C0.999994 21.3 0.599995 20.9 0.599995 20.4V6.2C0.599995 5.7 0.999994 5.3 1.49999 5.3C1.99999 5.3 2.39999 5.7 2.39999 6.2V7.8C3.39999 6.3 4.79999 5.1 6.99999 5.1C9.89999 5.1 12.8 7.4 12.8 11.4C12.8 15.4 9.89999 17.7 6.99999 17.7C4.79999 17.7 3.29999 16.5 2.39999 15.1V20.4C2.39999 20.9 1.99999 21.3 1.49999 21.3ZM22.8 39.5V30C22.8 30 23.4 29.4 24.3 29.4C25 29.4 25.6 30 25.6 30V39.5C25.6 39.5 25.2 40 24.3 40.1C23.4 40.1 22.8 39.5 22.8 39.5ZM0.399994 56.7C0.399994 58.2 1.49999 59.3 2.99999 59.3H19C20.3 59.3 21.4 58.2 21.4 56.9C21.4 55.6 20.3 54.5 19 54.5H5.59999V32.2C5.59999 30.8 4.49999 29.6 2.99999 29.6C1.49999 29.6 0.399994 30.7 0.399994 32.2V56.7ZM36.4 47.6H46.8L41.6 35.7L36.4 47.6ZM55.9 55.9C56.1 56.3 56.2 56.7 56.2 57C56.2 58.4 55.1 59.5 53.7 59.6C52.5 59.6 51.7 58.9 51.2 57.8L48.8 52.3H34.5L32 58C31.6 59 30.7 59.6 29.6 59.6C28.3 59.6 27.2 58.6 27.2 57.2C27.2 56.8 27.3 56.4 27.5 56L38.4 31.4C39 30.1 40 29.3 41.5 29.3H41.8C43.3 29.3 44.3 30.1 44.9 31.4L55.9 55.9ZM61.8 57C61.8 58.4 62.9 59.5 64.3 59.5C65.7 59.5 66.9 58.4 66.9 57V39.3L74.1 50.1C74.6 50.9 75.3 51.4 76.3 51.4C77.3 51.4 77.9 50.9 78.5 50.1L85.7 39.3V57C85.7 58.4 86.9 59.6 88.3 59.6C89.8 59.6 90.9 58.5 90.9 57V32.2C90.9 30.8 89.8 29.6 88.3 29.6H87.8C86.7 29.6 86 30.1 85.4 30.9L76.4 45L67.5 31C67 30.2 66.2 29.6 65.1 29.6H64.6C63.1 29.6 62 30.8 62 32.2V57H61.8ZM101.3 59.6C99.8 59.6 98.7 58.4 98.7 57V32.2C98.7 30.7 99.8 29.6 101.3 29.6C102.8 29.6 103.9 30.8 103.9 32.2V57C103.9 58.5 102.7 59.6 101.3 59.6ZM114.4 59.3H131.8C133.1 59.3 134.1 58.3 134.1 57C134.1 55.7 133 54.7 131.8 54.7H117V46.8H129.7C131 46.8 132 45.8 132 44.5C132 43.2 130.9 42.1 129.7 42.1H117V34.4H131.6C132.9 34.4 133.9 33.4 133.9 32.1C133.9 30.8 132.8 29.8 131.6 29.8H114.4C112.9 29.8 111.8 30.9 111.8 32.4V56.7C111.8 58.2 112.9 59.3 114.4 59.3Z" fill="#007165"/>
</svg>
