<svg width="25" height="25" viewBox="0 0 25 25" fill="none" xmlns="http://www.w3.org/2000/svg">
	<path d="M17.9346 17.2358H16.9247V16.1341H15.9148V17.2358H14.813V18.1539H15.9148V19.2556H16.9247V18.1539H17.9346V17.2358Z" fill="currentcolor"/>
	<path d="M11.8751 5.79773C11.1092 5.79773 10.4379 6.42308 10.36 7.17487H8.47819V7.46591H10.6435V7.32039C10.6435 6.66628 11.221 6.08876 11.8751 6.08876C12.5292 6.08876 13.1068 6.66628 13.1068 7.32039V7.46591H15.0885V7.17487H13.3903C13.3124 6.42308 12.641 5.79773 11.8751 5.79773Z" fill="currentcolor"/>
	<path d="M8.4782 8.01676H10.4892C10.7233 8.57398 11.2986 8.93486 11.8751 8.93486C12.5436 8.93486 13.0383 8.56942 13.2619 8.01676H15.0885V7.72573H13.0556L13.0224 7.82523C12.8578 8.31906 12.4527 8.64382 11.8751 8.64382C11.3836 8.64382 10.8906 8.31356 10.7279 7.82523L10.6947 7.72573H8.4782V8.01676Z" fill="currentcolor"/>
	<path fill-rule="evenodd" clip-rule="evenodd" d="M14.737 3.76862L14.7863 3.79328C14.8232 3.81174 14.8561 3.84161 14.8763 3.88344C14.8956 3.92327 14.8982 3.96296 14.8954 3.99426C14.8903 4.05242 14.8644 4.10751 14.8411 4.14924C14.7924 4.23667 14.7125 4.33803 14.6391 4.42834C14.6215 4.44991 14.6043 4.47096 14.5875 4.49143C14.5299 4.56179 14.4779 4.62527 14.4396 4.67915C14.4347 4.68602 14.4303 4.69237 14.4263 4.69824C14.4757 4.7342 14.5396 4.77114 14.6158 4.80829C14.7266 4.86234 14.853 4.91195 14.9775 4.95725C15.0396 4.97981 15.1004 5.00103 15.1582 5.02112L15.1708 5.0255C15.2235 5.04385 15.274 5.0614 15.3189 5.07775C15.3671 5.09525 15.4121 5.1125 15.449 5.12911C15.4796 5.14287 15.526 5.16503 15.5586 5.19768C15.6082 5.24724 15.6342 5.3098 15.6342 5.37732C15.6342 5.43902 15.6126 5.49383 15.5892 5.53666C15.5435 5.62042 15.466 5.70261 15.3979 5.77071C15.3712 5.79742 15.3457 5.82227 15.3214 5.84588C15.2771 5.88886 15.2371 5.92779 15.2019 5.96653C15.1757 5.99534 15.1582 6.01778 15.1478 6.03457C15.2358 6.35665 15.2799 6.69414 15.3023 6.95202C15.314 7.08684 15.3199 7.20121 15.3228 7.2821C15.3243 7.32257 15.325 7.35472 15.3254 7.37693L15.3257 7.40261L15.3258 7.40949L15.3258 7.41137L15.3258 11.2682C15.3258 11.9829 15.1119 12.8197 14.5832 13.4927C14.0508 14.1702 13.207 14.6713 11.9725 14.7187C10.5435 14.7664 9.60488 14.1442 9.02874 13.4C8.45873 12.6638 8.24086 11.8063 8.24086 11.36V7.13676H8.38637C8.24086 7.13676 8.24086 7.13676 8.24086 7.13676L8.24086 7.13495L8.24089 7.1309L8.24111 7.1163C8.24135 7.10376 8.24183 7.08572 8.24277 7.06282C8.24466 7.01705 8.2484 6.95174 8.25583 6.87218C8.27067 6.71342 8.30039 6.49605 8.36018 6.26286C8.4772 5.80648 8.71984 5.24948 9.23424 4.98939C9.24979 4.98006 9.26477 4.97104 9.27919 4.96236C9.36527 4.91055 9.4317 4.87056 9.48326 4.84478C9.54627 4.81328 9.61507 4.78785 9.69563 4.80127C9.75422 4.81104 9.80966 4.84214 9.85138 4.86553C9.85627 4.86828 9.86097 4.87091 9.86546 4.8734C9.89701 4.89083 9.93482 4.91137 9.98371 4.93443C10.3647 4.37345 10.8547 4.10307 11.3761 3.99879C11.9213 3.88974 12.4955 3.96343 13.0029 4.05569L13.0122 4.05739C13.0749 4.07305 13.2047 4.07177 13.3871 4.05006C13.5621 4.02923 13.7641 3.99284 13.9574 3.95305C14.1502 3.91335 14.332 3.87075 14.4657 3.83803C14.5325 3.82168 14.5872 3.80784 14.6251 3.79809L14.6688 3.78677L14.6801 3.7838L14.6829 3.78306L14.737 3.76862ZM8.53189 7.13683V11.36C8.53189 11.7399 8.72716 12.5351 9.25887 13.2219C9.78438 13.9007 10.6366 14.4719 11.9616 14.4279C13.1141 14.3835 13.8768 13.9206 14.3543 13.3129C14.8355 12.7005 15.0348 11.9306 15.0348 11.2682V7.41223L15.0348 7.41065L15.0347 7.40497L15.0344 7.38182C15.0341 7.36136 15.0334 7.33111 15.032 7.29268C15.0292 7.21578 15.0236 7.10636 15.0124 6.97723C14.9898 6.71784 14.945 6.38381 14.8567 6.07503L14.8511 6.05543V6.03505C14.8511 5.97237 14.8774 5.91882 14.9 5.88204C14.9241 5.84288 14.9553 5.80508 14.9865 5.77076C15.0275 5.72565 15.0792 5.67541 15.1276 5.62823C15.1503 5.60618 15.1723 5.58479 15.1921 5.56492C15.2618 5.4953 15.3105 5.43978 15.3337 5.3973L15.3297 5.39457C15.3028 5.38249 15.266 5.36818 15.2195 5.35126C15.1766 5.33565 15.128 5.31877 15.0746 5.30021L15.0625 5.296C15.0048 5.27592 14.9423 5.2541 14.8781 5.23076C14.7502 5.18425 14.6126 5.13057 14.4882 5.06986C14.3659 5.01022 14.2453 4.93865 14.1593 4.85261C14.1175 4.81083 14.1077 4.75949 14.1088 4.72198C14.1098 4.68735 14.1199 4.65717 14.1285 4.63617C14.1461 4.59365 14.1746 4.54959 14.2024 4.51042C14.2471 4.44763 14.308 4.37336 14.3667 4.30166C14.3825 4.28243 14.3981 4.2634 14.4132 4.24481C14.4469 4.20339 14.4781 4.16415 14.5054 4.12791C14.3727 4.16011 14.1996 4.20033 14.0161 4.2381C13.8192 4.27865 13.6081 4.31684 13.4215 4.33905C13.2449 4.36008 13.0675 4.37 12.9466 4.34127C12.4454 4.25031 11.9194 4.18692 11.4332 4.28417C10.9536 4.38008 10.5075 4.63322 10.1629 5.19322L10.0987 5.29757L9.9849 5.25207C9.86233 5.20304 9.78189 5.15973 9.72469 5.12812C9.72058 5.12585 9.7167 5.1237 9.71303 5.12167C9.69025 5.10906 9.67562 5.10096 9.6627 5.09474C9.65679 5.09189 9.65283 5.09025 9.6504 5.08933C9.64504 5.09088 9.63369 5.09496 9.61342 5.10509C9.57293 5.12534 9.51869 5.15796 9.43131 5.21051C9.41516 5.22022 9.39787 5.23061 9.37934 5.24174L9.36974 5.2475C8.96957 5.44758 8.75421 5.89791 8.64209 6.33515C8.58712 6.54953 8.55946 6.75104 8.54561 6.89926C8.5387 6.9732 8.53527 7.03342 8.53356 7.07479C8.53271 7.09546 8.53229 7.1114 8.53209 7.12195L8.53191 7.13365L8.53189 7.13683ZM9.6543 5.08845L9.65304 5.08864Z" fill="currentcolor"/>
	<path d="M15.3432 14.245L12.0601 17.0591L11.9656 16.9804L11.8235 16.8621C11.733 16.7868 11.6036 16.6793 11.448 16.5502C11.1368 16.2921 10.721 15.9479 10.3023 15.6038C9.88354 15.2597 9.46239 14.9159 9.14039 14.6583C8.97926 14.5294 8.84377 14.4227 8.7461 14.3485C8.69705 14.3113 8.65893 14.2833 8.63246 14.265L8.62504 14.2599C7.68869 14.2672 6.99856 14.5531 6.48601 14.9728C5.96437 15.4 5.61805 15.973 5.38874 16.5547C5.1595 17.1362 5.04979 17.7198 4.99764 18.1596C4.97161 18.379 4.96004 18.5617 4.95496 18.689C4.95243 18.7527 4.95152 18.8024 4.95124 18.836C4.9511 18.8528 4.95112 18.8655 4.95117 18.8738L4.95125 18.8831L4.95128 18.8852L4.95134 18.8884L4.95131 20.9082H4.66028V18.8896L4.66024 18.8868L4.66014 18.8755C4.66008 18.8658 4.66006 18.8518 4.66021 18.8336C4.66052 18.7972 4.66149 18.7444 4.66416 18.6775C4.66949 18.5437 4.68158 18.3534 4.70863 18.1253C4.76263 17.6699 4.87671 17.06 5.11799 16.448C5.3592 15.8361 5.73014 15.2156 6.30162 14.7477C6.87549 14.2777 7.64297 13.9688 8.66179 13.9688C8.69544 13.9688 8.72182 13.9807 8.72697 13.9831C8.73681 13.9874 8.74622 13.9926 8.75286 13.9964C8.76654 14.0044 8.78195 14.0146 8.79769 14.0254C8.82971 14.0475 8.87202 14.0787 8.92213 14.1168C9.02278 14.1932 9.16057 14.3017 9.3222 14.431C9.64574 14.6898 10.0681 15.0346 10.4871 15.379C10.9062 15.7235 11.3224 16.0679 11.6338 16.3262C11.7895 16.4554 11.919 16.563 12.0096 16.6383L12.0574 16.6781L15.1651 14.0143C15.1585 13.9704 15.1585 13.9704 15.1586 13.9704L15.1599 13.9702L15.163 13.9698L15.1737 13.9683C15.1827 13.9671 15.1957 13.9656 15.2124 13.9638C15.2456 13.9603 15.2935 13.956 15.3539 13.9528C15.4746 13.9465 15.6457 13.9443 15.8503 13.9606C16.2589 13.9933 16.8054 14.1004 17.3505 14.3999C18.4537 15.0061 19.5034 16.3725 19.4572 19.3486V21H19.1662V19.3452C19.2115 16.4462 18.1956 15.1963 17.2103 14.655C16.7111 14.3807 16.2075 14.2812 15.8271 14.2507C15.6372 14.2355 15.4791 14.2377 15.3692 14.2435C15.3602 14.2439 15.3516 14.2444 15.3432 14.245Z" fill="currentcolor"/>
</svg>
