<?xml version="1.0" encoding="utf-8"?>
<!-- Generator: Adobe Illustrator 26.5.0, SVG Export Plug-In . SVG Version: 6.00 Build 0)  -->
<svg version="1.1" id="Ebene_1" xmlns="http://www.w3.org/2000/svg" xmlns:xlink="http://www.w3.org/1999/xlink" x="0px" y="0px"
	 viewBox="0 0 25 25" style="enable-background:new 0 0 25 25;" xml:space="preserve">
<style type="text/css">
	.st0{fill:#037269;}
</style>
<path class="st0" d="M20.7,11.2h-5.8c-0.5-0.6-4.8-6.1-4.8-6.2C10,4.9,9.9,4.7,9.6,4.7c-0.4,0-0.7-0.1-0.9-0.1c-0.2,0-0.3,0-0.3,0.1
	C8.3,4.8,8.3,4.9,8.4,5c0.1,0.3,2.1,5.3,2.5,6.1H6.2C5.8,10.4,5.4,9.7,5.1,9C5,8.8,4.8,8.8,4.5,8.8H4.2c0,0-0.1,0-0.2,0.1
	c0,0-0.1,0.1,0,0.2c0,0.2,0.7,3.4,0.7,3.7c0,0-0.7,3.5-0.7,3.7c0,0.1,0,0.2,0,0.2s0.1,0.1,0.2,0.1h0.3c0.4,0,0.5,0,0.6-0.2
	c0.4-0.7,0.7-1.4,1.1-2.1h4.8c-0.4,0.9-2.4,5.9-2.5,6.1c-0.1,0.1,0,0.3,0,0.3C8.4,21,8.5,21,8.7,21c0.1,0,0.6-0.1,0.9-0.1
	c0.3,0,0.4-0.2,0.5-0.3c0.1-0.1,4.5-5.7,4.8-6.2h5.8c1.5,0,2.1-1.2,2.1-1.7C22.9,12.2,22.2,11.2,20.7,11.2z"/>
</svg>
