<svg width="25" height="25" viewBox="0 0 25 25" fill="none" xmlns="http://www.w3.org/2000/svg">
	<path fill-rule="evenodd" clip-rule="evenodd" d="M5.80203 12.875C5.80203 8.91729 8.96933 5.74999 12.927 5.74999C14.5296 5.74999 16.0023 6.27762 17.1876 7.16477L18.4546 5.94114L19.7986 7.3327L18.5663 8.52287C19.499 9.7305 20.052 11.2429 20.052 12.875C20.052 16.8336 16.8325 20 12.927 20C11.2106 20 9.6269 19.3786 8.39072 18.3504L7.1107 19.5867L5.76672 18.1951L7.08116 16.9256C6.27609 15.7721 5.80203 14.3742 5.80203 12.875ZM12.927 6.13513C14.4201 6.13513 15.7942 6.61942 16.9067 7.43605L7.36194 16.6544C6.62186 15.5732 6.18716 14.2703 6.18716 12.875C6.18716 9.12999 9.18203 6.13513 12.927 6.13513ZM12.927 19.6149C11.3192 19.6149 9.83411 19.0377 8.6695 18.0812L18.2875 8.79214C19.154 9.92878 19.6669 11.3463 19.6669 12.875C19.6669 16.6191 16.6216 19.6149 12.927 19.6149ZM6.14648 18.3117L18.5608 6.33052L19.4166 7.21726L7.00228 19.1985L6.14648 18.3117Z" fill="#000204"/>
</svg>
