<svg width="25" height="25" viewBox="0 0 25 25" fill="none" xmlns="http://www.w3.org/2000/svg">
	<path fill-rule="evenodd" clip-rule="evenodd" d="M9.26674 6.60094C9.26674 6.16267 9.62942 5.79999 10.0677 5.79999H13C13.4383 5.79999 13.801 6.16267 13.801 6.60094V7.42905H18.1587C18.597 7.42905 18.9597 7.79173 18.9597 8.23001V10.7279C18.9597 10.8404 18.8685 10.9315 18.756 10.9315C18.6436 10.9315 18.5524 10.8404 18.5524 10.7279V8.23001C18.5524 8.01666 18.3721 7.83632 18.1587 7.83632H5.28912C5.07577 7.83632 4.89543 8.01666 4.89543 8.23001V17.6243C4.89543 17.8376 5.07577 18.018 5.28912 18.018H8.3436V11.651C8.3436 11.4445 8.44679 11.2695 8.58356 11.151C8.71975 11.033 8.90211 10.9587 9.09025 10.9587H12.6335V10.1306C12.6335 9.69231 12.9962 9.32963 13.4344 9.32963H16.3668C16.805 9.32963 17.1677 9.69231 17.1677 10.1306V10.9587H20.7652C20.9528 10.9587 21.1324 11.0324 21.2657 11.1391C21.3955 11.2429 21.5119 11.4042 21.5119 11.5967V19.3076C21.5119 19.5142 21.4087 19.6892 21.2719 19.8077C21.1357 19.9257 20.9534 20 20.7652 20H9.09025C8.66645 20 8.3436 19.7056 8.3436 19.3076V18.4252H5.28912C4.85084 18.4252 4.48816 18.0626 4.48816 17.6243V8.23001C4.48816 7.79173 4.85084 7.42905 5.28912 7.42905H9.26674V6.60094ZM16.7604 10.9587V10.1306C16.7604 9.91723 16.5801 9.73689 16.3668 9.73689H13.4344C13.2211 9.73689 13.0407 9.91723 13.0407 10.1306V10.9587H16.7604ZM13.3937 6.60094V7.42905H9.67401V6.60094C9.67401 6.3876 9.85435 6.20725 10.0677 6.20725H13C13.2134 6.20725 13.3937 6.3876 13.3937 6.60094ZM8.75086 11.651C8.75086 11.5861 8.78342 11.5167 8.85029 11.4588C8.91773 11.4003 9.00689 11.366 9.09025 11.366H20.7652C20.8492 11.366 20.941 11.4008 21.0113 11.4571C21.0852 11.5162 21.1046 11.5721 21.1046 11.5967V19.3076C21.1046 19.3726 21.072 19.442 21.0052 19.4999C20.9377 19.5584 20.8486 19.5927 20.7652 19.5927H9.09025C8.86243 19.5927 8.75086 19.4527 8.75086 19.3076V11.651ZM11.3167 11.3931C11.4291 11.3931 11.5203 11.4843 11.5203 11.5967V19.2533C11.5203 19.3658 11.4291 19.457 11.3167 19.457C11.2042 19.457 11.113 19.3658 11.113 19.2533V11.5967C11.113 11.4843 11.2042 11.3931 11.3167 11.3931ZM18.2537 11.651C18.2537 11.5386 18.1626 11.4474 18.0501 11.4474C17.9376 11.4474 17.8465 11.5386 17.8465 11.651V19.3076C17.8465 19.4201 17.9376 19.5113 18.0501 19.5113C18.1626 19.5113 18.2537 19.4201 18.2537 19.3076V11.651Z" fill="currentcolor"/>
</svg>
