<svg width="25" height="25" viewBox="0 0 25 25" fill="none" xmlns="http://www.w3.org/2000/svg">
	<path fill-rule="evenodd" clip-rule="evenodd" d="M12.2585 3.317C11.7938 3.317 11.417 3.69375 11.417 4.1585C11.417 4.62325 11.7938 5 12.2585 5C12.7232 5 13.1 4.62325 13.1 4.1585C13.1 3.69375 12.7232 3.317 12.2585 3.317ZM11.1 4.1585C11.1 3.51868 11.6187 3 12.2585 3C12.8983 3 13.417 3.51868 13.417 4.1585C13.417 4.79832 12.8983 5.317 12.2585 5.317C11.6187 5.317 11.1 4.79832 11.1 4.1585ZM12.2585 8.617C9.69507 8.617 7.617 10.6951 7.617 13.2585C7.617 15.8219 9.69507 17.9 12.2585 17.9C14.8219 17.9 16.9 15.8219 16.9 13.2585C16.9 10.6951 14.8219 8.617 12.2585 8.617ZM7.39257 12.3C7.83908 10.0202 9.8479 8.3 12.2585 8.3C14.997 8.3 17.217 10.52 17.217 13.2585C17.217 15.997 14.997 18.217 12.2585 18.217C10.7086 18.217 9.32473 17.5059 8.41547 16.3921L6.36189 17.9789C6.62798 18.4361 6.58443 19.0607 6.05751 19.4823L6.05365 19.4854L6.0536 19.4853C5.59146 19.8319 4.89304 19.8304 4.43473 19.2575L4.43164 19.2536L4.4317 19.2536C4.0851 18.7915 4.08661 18.093 4.65949 17.6347L4.66335 17.6316L4.6634 17.6317C5.11619 17.2921 5.75426 17.3932 6.19419 17.7752L6.16162 17.7331L8.22291 16.1403C7.64192 15.3281 7.3 14.3332 7.3 13.2585C7.3 13.0411 7.31399 12.827 7.34111 12.617H4.45855V12.3H7.39257ZM2.317 12.4585C2.317 11.9938 2.69375 11.617 3.1585 11.617C3.62325 11.617 4 11.9938 4 12.4585C4 12.9232 3.62325 13.3 3.1585 13.3C2.69375 13.3 2.317 12.9232 2.317 12.4585ZM3.1585 11.3C2.51868 11.3 2 11.8187 2 12.4585C2 13.0983 2.51868 13.617 3.1585 13.617C3.79832 13.617 4.317 13.0983 4.317 12.4585C4.317 11.8187 3.79832 11.3 3.1585 11.3ZM10.6585 10.7C10.5341 10.7 10.4116 10.7312 10.3214 10.8214C10.2312 10.9116 10.2 11.0341 10.2 11.1585C10.2 11.2829 10.2312 11.4054 10.3214 11.4956C10.4116 11.5858 10.5341 11.617 10.6585 11.617C10.7829 11.617 10.9054 11.5858 10.9956 11.4956C11.0858 11.4054 11.117 11.2829 11.117 11.1585C11.117 11.0341 11.0858 10.9116 10.9956 10.8214C10.9054 10.7312 10.7829 10.7 10.6585 10.7ZM9.617 13.3585C9.617 13.2101 9.54549 13.0713 9.45808 12.9839C9.41416 12.94 9.355 12.8977 9.28427 12.8809C9.22708 12.8673 9.16343 12.8714 9.10614 12.9019C9.00023 12.91 8.89893 12.9439 8.82142 13.0214C8.73121 13.1116 8.7 13.2341 8.7 13.3585C8.7 13.4829 8.73121 13.6054 8.82142 13.6956C8.91163 13.7858 9.03407 13.817 9.1585 13.817C9.28293 13.817 9.40537 13.7858 9.49558 13.6956C9.58578 13.6054 9.617 13.4829 9.617 13.3585ZM11.117 12.8585C11.117 12.7393 11.0884 12.5983 11.0073 12.497C10.9643 12.4433 10.9029 12.3967 10.8221 12.3799C10.7543 12.3658 10.6866 12.3754 10.6229 12.4009C10.5109 12.4065 10.403 12.4398 10.3214 12.5214C10.2312 12.6116 10.2 12.7341 10.2 12.8585C10.2 12.9829 10.2312 13.1054 10.3214 13.1956C10.4116 13.2858 10.5341 13.317 10.6585 13.317C10.7829 13.317 10.9054 13.2858 10.9956 13.1956C11.0858 13.1054 11.117 12.9829 11.117 12.8585ZM4.85554 17.8838C4.43123 18.2248 4.43229 18.7241 4.68383 19.0614C5.02483 19.4858 5.52411 19.4847 5.86143 19.2332C6.28285 18.8945 6.28471 18.3998 6.03833 18.0626C5.6792 17.71 5.17353 17.6472 4.85554 17.8838ZM19.0853 8.2634C18.8311 7.92443 18.8304 7.41871 19.1626 7.07861C19.5015 6.83109 20.0013 6.83338 20.3384 7.16263C20.5864 7.50213 20.5836 8.00316 20.2525 8.34027C20.0272 8.51832 19.7919 8.59772 19.5914 8.5877C19.3948 8.57787 19.2175 8.48212 19.0944 8.27695L19.0902 8.26994L19.0853 8.2634ZM20.5706 6.94642C20.1107 6.48655 19.4217 6.48794 18.9634 6.8317L18.9544 6.83846L18.9464 6.84642C18.5069 7.28592 18.4887 7.93462 18.788 8.39133L16.4601 10.2342L16.6569 10.4828L18.9806 8.64322C19.1448 8.80629 19.3519 8.89312 19.5756 8.9043C19.873 8.91917 20.1849 8.80033 20.4575 8.58227L20.4644 8.57678L20.4706 8.57058C20.9305 8.1107 20.9291 7.42175 20.5853 6.9634L20.5785 6.95439L20.5706 6.94642ZM20.3626 13.7786C20.0304 14.1187 20.0311 14.6244 20.2853 14.9634L20.2902 14.9699L20.2944 14.977C20.5285 15.3671 21.1006 15.3922 21.4464 15.0464C21.7836 14.7093 21.7879 14.2042 21.5384 13.8626C21.2013 13.5334 20.7015 13.5311 20.3626 13.7786ZM20.1634 13.5317C20.6217 13.1879 21.3107 13.1865 21.7706 13.6464L21.7785 13.6544L21.7853 13.6634C22.1291 14.1217 22.1305 14.8107 21.6706 15.2706C21.2181 15.723 20.3949 15.7497 20.0268 15.1471C19.8665 14.9302 19.7822 14.6626 19.7863 14.3924L17.3344 14.0152L17.3826 13.7018L19.8321 14.0787C19.8864 13.8868 19.9896 13.7033 20.1464 13.5464L20.1544 13.5385L20.1634 13.5317ZM15.4174 20.0057C15.8509 19.8323 16.3495 20.0127 16.5113 20.4174C16.6847 20.8509 16.5043 21.3495 16.0996 21.5113C15.6661 21.6847 15.1675 21.5043 15.0057 21.0996C14.8323 20.6661 15.0127 20.1675 15.4174 20.0057ZM16.8057 20.2996C16.5887 19.7571 15.9869 19.5266 15.4531 19.6615L14.7066 17.7021L14.4104 17.8149L15.159 19.78C14.6709 20.0651 14.5036 20.698 14.7113 21.2174C14.9495 21.8127 15.6509 22.0323 16.2174 21.8057C16.8127 21.5675 17.0323 20.8661 16.8057 20.2996ZM12.1 8.1585V5.3585H12.417V8.1585H12.1Z" fill="currentcolor"/>
</svg>
