<svg xmlns="http://www.w3.org/2000/svg" width="132.001" height="32.89">
    <defs>
        <clipPath id="a">
            <path fill="none" d="M0-56h132v-32.89H0Z" transform="translate(0 88.886)"/>
        </clipPath>
    </defs>
    <g clip-path="url(#a)">
        <path fill="#00868b" d="M15.775 10.601v6.677a1.5 1.5 0 0 0 1.028.392 1.344 1.344 0 0 0 .93-.393v-6.676a1.618 1.618 0 0 0-.93-.393 1.544 1.544 0 0 0-1.028.393"/>
        <path fill="#017169" d="M0 29.433a1.816 1.816 0 0 0 1.844 1.844h11.241a1.663 1.663 0 0 0 1.666-1.666 1.663 1.663 0 0 0-1.666-1.666H3.658v-15.82a1.8 1.8 0 0 0-1.814-1.814A1.809 1.809 0 0 0 0 12.125Zm39.277.239a1.594 1.594 0 0 0-.208-.773L31.337 11.65a2.281 2.281 0 0 0-2.171-1.487h-.178a2.321 2.321 0 0 0-2.2 1.487l-7.732 17.249a1.873 1.873 0 0 0-.238.833 1.676 1.676 0 0 0 1.7 1.7 1.759 1.759 0 0 0 1.7-1.16l1.755-4.015h10.111l1.7 3.9a1.885 1.885 0 0 0 1.785 1.279 1.714 1.714 0 0 0 1.725-1.755m-6.6-6.662h-7.316l3.658-8.416Zm10.538 6.623a1.752 1.752 0 0 0 1.784 1.784 1.777 1.777 0 0 0 1.816-1.784V17.181l5.056 7.583a1.773 1.773 0 0 0 1.517.952 1.782 1.782 0 0 0 1.546-.952l5.081-7.643v12.491a1.841 1.841 0 0 0 1.814 1.814 1.809 1.809 0 0 0 1.844-1.814V12.185a1.834 1.834 0 0 0-1.844-1.844h-.384a1.84 1.84 0 0 0-1.666.951l-6.335 9.9-6.3-9.874a1.926 1.926 0 0 0-1.7-.981h-.385a1.834 1.834 0 0 0-1.844 1.848Zm26.022-.029a1.809 1.809 0 0 0 1.844 1.814 1.8 1.8 0 0 0 1.814-1.814V12.126a1.8 1.8 0 0 0-1.814-1.814 1.809 1.809 0 0 0-1.844 1.814Zm11.063 1.665H92.57a1.631 1.631 0 0 0 1.636-1.636 1.65 1.65 0 0 0-1.636-1.636H82.131v-5.587h8.952a1.625 1.625 0 0 0 1.635-1.61 1.656 1.656 0 0 0-1.636-1.666h-8.951V13.73h10.29a1.631 1.631 0 0 0 1.635-1.634 1.65 1.65 0 0 0-1.636-1.636h-12.1a1.816 1.816 0 0 0-1.844 1.844v17.13a1.816 1.816 0 0 0 1.844 1.844m23.144-19.242c-.861.021-2.887-.023-2.549.389-.047.3.675.833.675.833a4.1 4.1 0 0 0 1.3-.252c.841-.441 5.8.382 7.1.356.875-.057 2.4-.213 3.286-.307l-.812.243s.334.29 2.017.115l.013.013-1.089.24a9.519 9.519 0 0 1 1.89.758 2.368 2.368 0 0 1 .369 1.127c.044 1.692.142 1.817-.567 2.488l.06-.07a10.8 10.8 0 0 0-2.087 2.39c-.944 1.468-2.755 3.783-3.263 4.493s-.994.826-1.924 1.66-4.98 4.166-4.98 4.166-.716.725-.7 1.044-.256.769.457.774c.91.391 1.287.349 1.262-.342a2.439 2.439 0 0 1 .21-1.136s2.176-1.229 3.904-1.949a9.582 9.582 0 0 0 2.295-1.983s.55-.321.971-.63c.384-.282 2.3-1.532 2.3-1.532l1.294.068.475-1.255.146 2.1 3.547-.883.08-1.531c.586.255 5.9.629 5.9.629a4.211 4.211 0 0 0-.342 2.861 8.811 8.811 0 0 1 .358 3.9c-.337.857-.35 1.873.289 1.851s.6-.043 1.128-.062 2.825.651 3.016.017.2-.357-.559-.6-2.2-.365-2.441-1.1.424-5.84.408-6.319.454-2.222-.575-2.522c-.4-.115-1.825-.609-3.277-1.117l-.006-.41-3.579-1.28a3.8 3.8 0 0 1-.172-.992c.06-2.225 1.808-4.14 1.5-5.1a5.985 5.985 0 0 0-1.167-1.369c.9-.843 2.474-2.326 2.964-2.8.7-.673 2.272-4.646 2.272-4.646s1-.842 1.337-1.168c0 0-.333-1.09-.62-.92-.558.235-.315.078-.729.478s-.336.6-.568.826-2.144 3.864-2.609 4.313-2.052 1.381-2.9 2.063a4.505 4.505 0 0 0-.575.518l-.051-.046-.537-.924c.287-.085.869-.278.915-.457a11.32 11.32 0 0 0-.036-1.32 4.1 4.1 0 0 0-.414-.875 1.921 1.921 0 0 0-2.1-1.319 2.5 2.5 0 0 0-1.778 1.136c0 .01-.008.022-.013.033s-.851-.034-.839.248c-.07.7.191 1.5.414 1.481a6.03 6.03 0 0 0 .715.022 6.377 6.377 0 0 0 1.43 1.184h.033l-.033.01-.03 1.053s-.54-.011-1-.009c-.3-.343-.614-.713-.847-.987-.9-1.057-3.155.121-5.2.149 0 0 .265.519 2.515.58l-2.189.164s.143.511 2.884.532l-2.332.225a1.457 1.457 0 0 0 .895.394 2.013 2.013 0 0 1-.439.089 7.063 7.063 0 0 0-.98-.011"/>
        <path fill="#00868b" d="M125.212 2.518c7.784 5.166 6.777 15.739 6.714 14.683-.657-10.948-7.277-13.338-7.277-13.338s-5.721-6.151-17.188-.975c-.531.24 8.719-6.36 17.751-.366"/>
    </g>
    <path fill="#00868b" d="m97.012 10.847.221-.123 12.659 5.675 1.538.642-.718-.358.747.3-1.479-.732-12.668-5.9-.063-.237-1.6-.287Z"/>
    <path fill="#00868b" d="m112.014 16.875-1.287-.612-.926-.045 1.658.762Zm-.361.682-1.209-.576-.73-.744 1.745.834Z"/>
</svg>