<svg xmlns="http://www.w3.org/2000/svg" width="43" height="62" fill="none">
    <g fill="currentcolor" fill-rule="evenodd" clip-path="url(#a)" clip-rule="evenodd">
        <path d="M28.24 50.004a.5.5 0 0 1 .523.476l.28 5.939-.001.019v.112c.003.078.008.193.023.332.03.28.096.643.235.995.138.353.34.672.63.898.28.219.676.378 1.263.36l.008-.001h1.753c.88-.048 1.328-.636 1.575-1.345.124-.354.184-.712.213-.986a4.626 4.626 0 0 0 .025-.41v-.024a.5.5 0 0 1 1-.018l-.5.009.5-.01v.049c0 .027 0 .066-.002.114a5.525 5.525 0 0 1-.291 1.605c-.312.897-1.011 1.944-2.483 2.015l-.012.001h-1.762c-.797.023-1.425-.198-1.904-.571-.471-.369-.763-.859-.944-1.32a5.239 5.239 0 0 1-.326-1.667c-.002-.05-.002-.091-.002-.12v-.028l-.276-5.903a.5.5 0 0 1 .476-.523Zm1.594-43.218c-.615.824-1.01 1.986-1.01 3.29 0 .356-.161.676-.319.921-.144.225-.327.45-.486.644l-.054.067c-.184.225-.322.403-.404.557a.416.416 0 0 0-.06.162c.24.616.978 1.18 1.955 1.601.957.413 2.002.624 2.654.624.482 0 1.433-.194 2.367-.533a7.7 7.7 0 0 0 1.252-.569c.366-.215.601-.419.712-.587l.001-.001a.41.41 0 0 0 .05-.095.627.627 0 0 0-.075-.118 4.58 4.58 0 0 0-.115-.144l-.09-.111c-.36-.451-.813-1.125-.816-2.417v-.001c0-1.303-.395-2.465-1.01-3.29-.614-.824-1.424-1.286-2.276-1.286-.851 0-1.661.462-2.276 1.286ZM27.5 12.43v-.001Zm1.532-6.243C29.788 5.175 30.871 4.5 32.11 4.5c1.24 0 2.323.676 3.078 1.69.756 1.012 1.208 2.388 1.208 3.885.003 1 .33 1.46.597 1.794l.066.082c.053.065.111.136.158.198.072.096.154.217.21.36a.973.973 0 0 1 .055.512c-.03.18-.107.343-.207.494l-.216-.766.215.767c-.235.357-.626.654-1.038.896-.424.249-.92.467-1.418.648-.984.355-2.06.592-2.708.592-.812 0-1.991-.25-3.05-.705-1.035-.446-2.104-1.153-2.495-2.166-.146-.378-.02-.738.113-.986.135-.253.337-.505.51-.718l.053-.065a6.38 6.38 0 0 0 .423-.555c.127-.198.16-.317.16-.381 0-1.499.453-2.875 1.208-3.888Z"/>
        <path d="M35.14 15.104c1.096-.053 1.95.332 2.594.94.634.6 1.048 1.402 1.322 2.168.275.77.42 1.54.498 2.113a11.428 11.428 0 0 1 .085.898l.001.032a62.918 62.918 0 0 1 1.062 8.201l.002.026-.001.025c-.02.54-.206.937-.502 1.25-.238.252-.546.443-.812.607l-.094.059a.5.5 0 1 1-.53-.848l.082-.052c.29-.181.484-.301.627-.453.124-.131.213-.291.228-.577a61.924 61.924 0 0 0-1.05-8.083l-.009-.042v-.044l-.001-.01-.002-.044a10.426 10.426 0 0 0-.077-.812 9.628 9.628 0 0 0-.449-1.91c-.245-.687-.59-1.326-1.067-1.777-.462-.437-1.061-.712-1.878-.667l-.025.002-.025-.002c-1.453-.067-3.122-.047-4.434-.01a97.18 97.18 0 0 0-2.084.08l-.124.007-.031.002h-.01l-.073.004-.03-.007h-.008a1.057 1.057 0 0 0-.287.09c-.312.134-.856.465-1.663 1.267a7.853 7.853 0 0 0-1.8 4.28v.005l-.005.041-.013.12a101.977 101.977 0 0 0-.192 1.995.5.5 0 0 1-.996-.088 124.738 124.738 0 0 1 .193-2.012l.013-.122.005-.041.497.053-.498-.049a8.854 8.854 0 0 1 2.046-4.844l.014-.016.015-.015c.87-.869 1.522-1.292 1.987-1.493.234-.1.424-.147.572-.164a1.108 1.108 0 0 1 .21-.005l.127-.006.473-.023c.404-.018.973-.04 1.634-.06 1.313-.036 3-.056 4.484.011Z"/>
        <path d="M35.128 30.91c.696-.52 1.566-.573 2.209-.573.678 0 1.49.116 2.137.65.663.546 1.05 1.443 1.063 2.778a4.07 4.07 0 0 1-1.343 3.275l.206.008a2.255 2.255 0 0 1 1.71.622c.417.394.682.913.853 1.394.173.485.264.968.312 1.324a7.197 7.197 0 0 1 .053.563v.005a38.43 38.43 0 0 1 .647 4.992l.002.026-.001.025c-.03.788-.344 1.27-.736 1.533a1.482 1.482 0 0 1-.238.13l.125 2.692a.506.506 0 0 1-.01.466.527.527 0 0 1-.198.202.726.726 0 0 1-.179.071c-.042.011-.088.02-.131.029a9.3 9.3 0 0 1-.662.084 51.24 51.24 0 0 1-.663.06l-.277 7.718.004.066a3.383 3.383 0 0 1-.1 1.01 1.943 1.943 0 0 1-.483.877c-.274.275-.649.452-1.126.475l-.012.001h-1.38c-.518.014-.939-.123-1.26-.378a1.847 1.847 0 0 1-.59-.878 2.871 2.871 0 0 1-.137-.793 3.122 3.122 0 0 1 .006-.328l-.345-7.75-1.69-.183-.297-3.326a1.023 1.023 0 0 1-.22-.147c-.34-.297-.53-.824-.53-1.648 0-1.394.189-3.264.3-4.37l.037-.37a5.574 5.574 0 0 1 1.289-3.049l.003-.003a3.139 3.139 0 0 1 1.876-1.053l-.016-.014c-.718-.636-1.289-1.663-1.322-3.206-.032-1.507.383-2.462 1.114-3.007Zm2.179 6.058a3.071 3.071 0 0 0 2.231-3.153v-.014l-.001-.014c-.008-1.157-.335-1.729-.699-2.029-.381-.314-.91-.421-1.501-.421-.626 0-1.198.067-1.611.375-.379.282-.74.862-.712 2.183.028 1.285.49 2.04.985 2.48.48.425 1.017.575 1.308.593Zm-1.38 22.134v.008l-.004.044a2.09 2.09 0 0 0 .085.688.852.852 0 0 0 .264.41c.112.088.294.171.616.161h1.377c.233-.014.366-.092.455-.182a.957.957 0 0 0 .227-.433 2.176 2.176 0 0 0 .066-.693l-.003-.044v-.008l-.001-.001-.004-.035.309-8.6.367-.09c.055-.014.14-.022.188-.027h.01c.07-.008.161-.016.264-.025l.053-.004a53.044 53.044 0 0 0 .922-.09l-.158-3.401h.516a.486.486 0 0 0 .207-.077c.09-.062.268-.225.292-.718a37.415 37.415 0 0 0-.636-4.873l-.008-.042v-.042l-.001-.005-.001-.025a6.213 6.213 0 0 0-.045-.477 5.66 5.66 0 0 0-.263-1.121c-.143-.403-.34-.76-.597-1.003a1.263 1.263 0 0 0-.993-.35l-.023.002-.024-.001a34.025 34.025 0 0 0-3.523.047h-.014l-.013.001a2.139 2.139 0 0 0-1.598.744 4.574 4.574 0 0 0-1.056 2.501l-.038.376c-.112 1.113-.295 2.926-.295 4.265 0 .66.146.852.18.888l.484-.096.306 3.423 1.727.186.387 8.68-.004.037v.002Zm5.556-8.975Zm-16.836-26.66.047.004a4.12 4.12 0 0 1 3.794 4.1 1.452 1.452 0 0 0 .773 1.071l.29.149-.019.325c-.08 1.36-1.157 2.245-2.16 2.764-1.014.524-2.146.777-2.678.777h-.013c-.492 0-1.63 0-2.72-.473-1.137-.493-2.2-1.492-2.484-3.407l-.075-.507.508-.062h.004c.005-.002.014-.003.026-.005a1.752 1.752 0 0 0 .425-.127c.248-.113.307-.222.307-.318v-.011a4.4 4.4 0 0 1 3.928-4.275l.047-.005Zm3.341 4.139-.5-.004a3.12 3.12 0 0 0-2.827-3.13 3.4 3.4 0 0 0-2.989 3.293c-.003.7-.541 1.061-.893 1.221a2.506 2.506 0 0 1-.226.09c.306 1.237 1.04 1.858 1.806 2.19.89.387 1.848.391 2.335.391.34 0 1.314-.198 2.22-.665.807-.418 1.412-.972 1.578-1.652a2.454 2.454 0 0 1-1-1.668l.496-.066Z"/>
        <path d="M27.196 31.758c.855-.041 1.528.261 2.033.739.495.469.815 1.09 1.023 1.674.21.589.321 1.176.38 1.61a8.711 8.711 0 0 1 .064.684l.001.015c.401 2.034.669 4.09.801 6.16l.002.025-.001.025c-.036.939-.409 1.496-.857 1.796-.104.07-.207.122-.303.162l.822 5.248a.513.513 0 0 1-.159.694.624.624 0 0 1-.142.069 2.1 2.1 0 0 1-.36.07c-.264.035-.652.07-1.046.1-.333.025-.678.049-.971.069l-.164.01c-.051.005-.1.008-.146.011l-.342 7.806.006.082a4.056 4.056 0 0 1-.117 1.211c-.093.341-.26.723-.565 1.03-.317.318-.753.524-1.313.548l-.011.001h-1.703c-.617.018-1.11-.144-1.482-.44a2.159 2.159 0 0 1-.691-1.027 3.42 3.42 0 0 1-.162-.947 3.706 3.706 0 0 1 .007-.395l-.427-7.854-.06-.007a.5.5 0 1 1 .114-.994l.898.103.477 8.775-.004.04v.001l-.001.013a2.721 2.721 0 0 0-.005.284c.007.191.035.434.112.665.077.23.194.425.363.56.163.129.417.237.837.223h1.704c.316-.016.508-.124.639-.255.142-.142.242-.345.307-.585a3.105 3.105 0 0 0 .08-.952v-.012l-.001-.001-.004-.038.38-8.691.364-.09a.918.918 0 0 1 .129-.02h.004l.136-.012c.106-.009.247-.019.408-.03l.165-.011c.293-.02.634-.043.962-.069.277-.021.54-.043.752-.065l-.94-5.995h.587a.718.718 0 0 0 .31-.115c.147-.099.382-.337.412-.98a46.404 46.404 0 0 0-.79-6.04l-.008-.042v-.042l-.001-.008-.001-.031a7.785 7.785 0 0 0-.057-.598 7.098 7.098 0 0 0-.33-1.408c-.181-.505-.432-.964-.77-1.283-.323-.306-.739-.498-1.315-.467l-.023.002-.023-.001a42.047 42.047 0 0 0-4.361.059h-.014l-.014.001a2.757 2.757 0 0 0-2.06.96 5.768 5.768 0 0 0-1.331 3.153l-.045.451h-.006c-.026.243-.06.573-.098.956-.08.825-.172 1.893-.222 2.876a.5.5 0 0 1-.998-.05c.05-1.005.144-2.09.225-2.922a88.13 88.13 0 0 1 .137-1.313l.01-.078.002-.023a6.767 6.767 0 0 1 1.563-3.697l.003-.003a3.757 3.757 0 0 1 2.795-1.31 43.058 43.058 0 0 1 4.43-.06Z"/>
        <path d="M13.74 32.696c.122.092.217.229.29.345.163.261.503.422.937.498.07.012.138.021.205.029a.48.48 0 0 1 .174-.04l.031-.001h.008c.135.002.27.011.402.027l.108.009c.022.002.066.006.103.013a.51.51 0 0 1 .102.03 3.886 3.886 0 0 1 3.102 3.583l-.304.018.305.007v.004l-.259.007.258.013a4.248 4.248 0 0 1-2.217 3.533c.316.005.629.012.93.024.695-.038 1.253.256 1.674.671.417.411.715.953.928 1.46a9.457 9.457 0 0 1 .562 2.004l.005.03a36.92 36.92 0 0 1 .8 5.433l.003.029-.002.028c-.042.997-.815 1.538-1.401 1.806a4.59 4.59 0 0 1-.82.28l-.805 6.616v.075a3.348 3.348 0 0 1-.222 1.114 2.281 2.281 0 0 1-.646.93c-.331.277-.765.457-1.31.48l-.011.001h-2.144c-.604.015-1.088-.129-1.46-.392a2.034 2.034 0 0 1-.718-.941 3.096 3.096 0 0 1-.185-1.209l-1.204-6.56a3.06 3.06 0 0 1-.72-.26c-.577-.299-1.188-.892-1.188-1.958 0-.858.106-2.15.209-3.211a96.613 96.613 0 0 1 .19-1.777l.013-.11A4.512 4.512 0 0 1 10.729 42l.013-.014.015-.013c.66-.582 1.159-.87 1.521-1.009a1.76 1.76 0 0 1 .45-.114c.06-.005.11-.006.153-.004h.013l.09-.003a62.035 62.035 0 0 1 .694-.028 4.2 4.2 0 0 1-2.279-3.411 3.559 3.559 0 0 1 1.396-3.257l.001-.056c.002-.105 0-.196-.004-.295l-.005-.294c0-.101.003-.212.014-.313a1.1 1.1 0 0 1 .032-.17.67.67 0 0 1 .119-.238.55.55 0 0 1 .43-.21c.172 0 .297.078.359.125Zm-.954 1.553v-.002ZM10.46 45.412l-.004.038-.013.11-.047.408c-.038.344-.09.821-.14 1.35-.104 1.063-.205 2.31-.205 3.114 0 .595.306.893.648 1.07a2.077 2.077 0 0 0 .715.212l.007.001.387.026 1.364 7.422-.008.07v.01l-.003.048a2.098 2.098 0 0 0 .12.766c.076.195.19.365.362.486.168.12.433.22.864.21l.013-.001h2.128c.33-.016.548-.12.7-.248.16-.134.276-.319.357-.527a2.351 2.351 0 0 0 .154-.828v-.01l-.001-.037.904-7.432.384-.05.013-.002.056-.009a3.604 3.604 0 0 0 .854-.262c.476-.218.787-.513.816-.914a35.923 35.923 0 0 0-.78-5.271l.487-.11-.495.069-.001-.007-.005-.028a8.506 8.506 0 0 0-.497-1.772c-.187-.45-.423-.856-.707-1.136-.274-.27-.574-.407-.932-.383l-.027.002-.027-.001a54.029 54.029 0 0 0-3.313-.008 81.923 81.923 0 0 0-1.558.054l-.093.004-.03.001-.065.004-.02-.005a.827.827 0 0 0-.187.053c-.217.082-.61.291-1.201.81a3.513 3.513 0 0 0-.97 2.616l.002.044-.006.043Zm7.742-8.193a2.885 2.885 0 0 0-2.339-2.642 4.61 4.61 0 0 1-1.069-.053 2.88 2.88 0 0 1-1-.357 1.808 1.808 0 0 1-.023.255.838.838 0 0 1-.058.194.59.59 0 0 1-.217.258 2.56 2.56 0 0 0-1.103 2.421l.002.011v.011a3.2 3.2 0 0 0 2.94 2.947 3.248 3.248 0 0 0 2.867-3.045Zm-2.244-2.65-.052-.497.053.497h-.001Z"/>
        <path d="M8.25.395a3.264 3.264 0 0 1 4.084.107c.84.7 1.22 1.38 1.337 2.142.056.365.049.73.023 1.09-.012.18-.033.392-.054.606a32.635 32.635 0 0 0-.098 1.253c-.04.617-.079 1.212-.174 1.741-.136.755-.397 1.456-.981 2.051a3.454 3.454 0 0 1-1.522 1.09c.744.001 1.501.015 2.213.048 1.515.07 2.669.546 3.536 1.242.863.693 1.415 1.581 1.77 2.438a9.01 9.01 0 0 1 .593 2.321 9.049 9.049 0 0 1 .064 1.036v.012l.007.412a901.1 901.1 0 0 1 .068 4.713c.032 2.7.053 5.705.01 6.849-.053 1.38-1.072 2.337-1.936 2.913a8.215 8.215 0 0 1-1.442.758l-.032.63a.5.5 0 0 1-.998-.051l.065-1.298.325-.108.005-.001.023-.008a6.85 6.85 0 0 0 .44-.177c.29-.13.676-.322 1.06-.578.795-.53 1.457-1.24 1.49-2.118.043-1.113.022-4.086-.01-6.8a977.556 977.556 0 0 0-.068-4.707l-.007-.42.5-.01-.5.01v-.035a4.35 4.35 0 0 0-.003-.228 8.1 8.1 0 0 0-.054-.674 7.975 7.975 0 0 0-.524-2.058c-.31-.748-.774-1.48-1.472-2.04-.692-.556-1.64-.964-2.956-1.024-1.532-.071-3.29-.05-4.67-.012a100.336 100.336 0 0 0-2.194.086l-.13.007-.044.002-.017.001H5.96a4.528 4.528 0 0 0-3.345 1.426 8.293 8.293 0 0 0-1.906 4.504v11.642c0 1.064.752 1.855 1.647 2.416a7.383 7.383 0 0 0 1.717.78l.026.007.006.002.352.096.903 21.51-.003.032v.004l-.002.021-.004.092c-.003.08-.003.2.004.343.014.289.062.661.185 1.022s.314.685.599.914c.277.222.685.389 1.312.37l.007-.001h4.613a.5.5 0 0 1 0 1H7.473c-.83.024-1.476-.2-1.96-.59-.477-.383-.756-.892-.92-1.37a4.825 4.825 0 0 1-.237-1.295 5.219 5.219 0 0 1 .002-.564l-.87-20.733a8.387 8.387 0 0 1-1.663-.792C.84 31.823-.29 30.77-.29 29.178V17.486l.002-.024a9.293 9.293 0 0 1 2.148-5.085l.008-.01.009-.009a5.529 5.529 0 0 1 4.077-1.752l.03-.002.134-.007.497-.024a99.74 99.74 0 0 1 1.72-.062h.012a3.703 3.703 0 0 1-1.741-1.137c-.501-.526-.769-.951-.901-1.562-.092-.42-.119-.942-.154-1.634a26.87 26.87 0 0 0-.07-1.153c-.025-.304-.05-.64-.061-.957-.017-.52 0-1.084.136-1.61.137-.534.4-1.049.886-1.435C6.892.663 7.491.45 8.25.395Zm4.346 4.39c.017-.217.035-.399.052-.569.018-.188.035-.361.049-.552a3.924 3.924 0 0 0-.015-.868c-.073-.479-.3-.951-.99-1.527l-.003-.003a2.264 2.264 0 0 0-2.928 0l-.13.111-.172.008c-.692.028-1.12.201-1.395.42-.272.217-.442.518-.54.902-.101.39-.122.843-.106 1.327.01.305.033.587.055.868.014.182.028.362.04.548l.04.75c.034.658.055 1.065.128 1.4.082.378.23.647.657 1.094l.01.01.009.011a2.707 2.707 0 0 0 2.069.954h.023l.023.002a2.454 2.454 0 0 0 2.147-.927l.018-.024.021-.02c.407-.407.61-.9.726-1.543.084-.47.117-.978.155-1.567.017-.252.034-.52.057-.805Z"/>
    </g>
    <defs>
        <clipPath id="a">
            <path fill="#fff" d="M0 0h42.685v61.46H0z"/>
        </clipPath>
    </defs>
</svg>