<svg xmlns="http://www.w3.org/2000/svg" width="22" height="64" fill="none">
    <path fill="currentcolor" fill-rule="evenodd" d="M15.025 11.563c3.187.147 5.07 1.074 6.016 2.788.444.805.627 1.696.714 2.562.07.693.08 1.436.091 2.15l.009.494c.098 4.908.19 10.414.097 12.867-.065 1.71-1.322 2.85-2.28 3.488a9.27 9.27 0 0 1-1.345.735l-.833 21.837v.025l-.001.14c-.003.117-.011.28-.03.472-.037.38-.12.907-.306 1.451-.374 1.088-1.264 2.452-3.175 2.546H9.014c-.982.027-1.783-.24-2.397-.733-.6-.482-.94-1.114-1.134-1.68a5.63 5.63 0 0 1-.278-1.514 6.055 6.055 0 0 1 0-.633l-.918-21.873a9.441 9.441 0 0 1-1.576-.784C1.613 35.212.228 33.963.228 32.01c0-.83-.016-2.074-.034-3.475a867.92 867.92 0 0 1-.036-3.12c-.023-2.504-.025-4.986.075-6.002a10.419 10.419 0 0 1 2.408-5.7l.016-.02.017-.018A6.386 6.386 0 0 1 7.36 11.65l.02-.002.144-.007.536-.026.176-.007a4.44 4.44 0 0 1-.509-.503c-.568-.6-.908-1.126-1.073-1.885-.107-.492-.138-1.104-.177-1.856-.01-.216-.022-.444-.036-.683V6.68c-.008-.135-.021-.304-.035-.488a24.296 24.296 0 0 1-.066-1.066c-.019-.573-.001-1.228.16-1.855.166-.641.492-1.292 1.11-1.785.545-.434 1.236-.682 2.059-.76a3.961 3.961 0 0 1 4.841.21c.969.809 1.447 1.631 1.593 2.58.067.44.057.871.03 1.271-.014.186-.038.434-.06.678-.02.194-.038.386-.05.538-.02.246-.036.498-.053.75-.043.67-.087 1.347-.193 1.94-.153.854-.456 1.698-1.155 2.419a4.23 4.23 0 0 1-.392.422c.269.007.535.017.795.029Zm-2.54.948c-.469 0-.932.005-1.377.012l-.081.001a105.99 105.99 0 0 0-3.642.127 5.386 5.386 0 0 0-3.981 1.708 9.419 9.419 0 0 0-2.177 5.153c-.132 1.341-.078 5.607-.034 8.999.018 1.408.034 2.666.034 3.5 0 2.847 4.031 3.95 4.031 3.95l.949 22.612S5.87 62.213 9 62.119h4.933c2.66-.13 2.561-3.646 2.561-3.646l.859-22.512s3.508-1.16 3.6-3.575c.092-2.416 0-7.886-.098-12.81l-.009-.518c-.052-3.355-.096-6.23-5.867-6.496-.8-.037-1.656-.051-2.494-.05Zm-1.381-.863a3.166 3.166 0 0 0 2.768-1.2c.916-.917.995-2.143 1.096-3.698.017-.266.035-.541.058-.826.016-.205.036-.4.054-.59.139-1.424.236-2.424-1.213-3.632a2.96 2.96 0 0 0-3.828 0c-2.967.123-2.78 2.537-2.64 4.364.015.193.03.38.04.557.016.278.03.53.041.758.086 1.68.11 2.133.99 3.055a3.436 3.436 0 0 0 2.634 1.212Z" clip-rule="evenodd"/>
</svg>